<svg width="2226" height="512" viewBox="0 0 2226 512" fill="none" xmlns="http://www.w3.org/2000/svg">
<path fill-rule="evenodd" clip-rule="evenodd" d="M323.399 28.5961C306.92 23.0368 289.987 19.3378 272.601 17.4991C240.968 14.154 209.762 16.4071 178.983 24.2583C175.508 25.1431 172.012 26.1531 168.494 27.2883C160.47 29.6319 152.285 32.6037 143.937 36.2034C116.991 47.8313 92.9151 63.62 71.7095 83.5695C61.1391 93.5141 51.7104 103.888 43.4232 114.692C38.6495 120.916 35.5008 124.956 33.9772 126.812C33.3816 127.537 33.5046 128.223 34.3462 128.87L34.5275 129.006C34.743 129.174 35.0491 129.221 35.3872 129.139C35.7252 129.056 36.0715 128.85 36.3598 128.56C42.8988 121.964 48.948 116.558 54.5073 112.341C83.7971 90.1215 119.432 76.6549 156.258 74.9587C163.587 74.622 170.855 74.6371 178.063 75.004C212.904 76.86 244.16 88.1512 271.831 108.878C280.312 115.231 287.954 122.202 294.756 129.79C308.033 144.603 318.554 161.27 326.319 179.791C331.554 192.39 335.171 204.749 337.17 216.869C340.64 237.885 340.258 259.278 336.024 281.049C330.637 308.772 318.616 333.763 299.962 356.022C287.768 370.093 273.706 381.98 257.775 391.682C246.393 398.614 234.383 404.269 221.746 408.645C211.624 412.159 201.228 414.636 190.559 416.078C172.081 418.577 153.692 418.29 135.391 415.217C111.993 411.284 89.6822 402.913 68.4594 390.103C53.9785 381.358 40.8767 370.74 29.1538 358.249C28.5754 357.632 27.9388 357.394 27.2439 357.537C27.0182 357.584 26.8062 357.682 26.6227 357.823C26.4392 357.964 26.2886 358.146 26.1814 358.355C26.0742 358.564 26.0129 358.795 26.0018 359.033C25.9908 359.271 26.0302 359.509 26.1174 359.732C26.3332 360.28 26.8187 361.229 27.5741 362.58C32.3694 371.161 37.2165 379.07 42.1154 386.309C56.333 407.307 73.3367 425.871 93.1266 442.001C110.046 455.787 128.04 466.81 147.109 475.072C175.761 487.489 205.959 494.337 237.705 495.615L238.799 495.453L237.705 495.615C259.372 496.456 280.789 494.376 301.956 489.374C326.688 483.715 349.997 474.398 371.885 461.424C391.709 449.623 409.505 434.996 425.272 417.541C441.376 399.715 454.294 380.102 464.028 358.702C472.69 339.646 478.77 319.82 482.266 299.223C484.303 287.215 485.509 275.073 485.885 262.798C486.545 241.062 484.365 219.675 479.346 198.638C478.327 194.373 477.188 190.212 475.927 186.155C465.668 153.175 449.186 123.555 426.483 97.2951C410.617 78.9426 392.292 63.4884 371.509 50.9325C356.364 41.6742 340.327 34.2287 323.399 28.5961ZM191.005 195.135C181.915 182.761 170.859 173.457 157.837 167.224C145.959 161.536 133.136 158.685 119.367 158.672C108.089 158.663 96.8472 158.717 85.6423 158.834C85.5868 158.835 85.5341 158.858 85.4954 158.896C85.4568 158.935 85.4351 158.987 85.4351 159.041V340.827C85.4351 341.189 85.6164 341.371 85.9789 341.371C102.592 341.349 113.512 341.273 118.739 341.144C126.59 340.954 134.154 339.929 141.431 338.069C157.367 333.999 171.06 326.02 182.511 314.133C191.247 305.069 197.909 294.628 202.497 282.81C208.149 268.256 209.664 252.09 207.742 236.713C205.864 221.628 200.285 207.769 191.005 195.135ZM237.784 485.581L237.784 485.581C237.65 484.999 237.519 484.427 237.39 483.865C237.519 484.427 237.65 484.999 237.784 485.581Z" fill="#FC7545"/>
<path d="M2095.93 438.5C2083.93 438.5 2073.77 434.333 2065.43 426C2057.1 417.667 2052.93 407.667 2052.93 396C2052.93 384.333 2057.1 374.167 2065.43 365.5C2073.77 356.833 2083.93 352.5 2095.93 352.5C2107.93 352.5 2118.1 356.833 2126.43 365.5C2134.77 374.167 2138.93 384.333 2138.93 396C2138.93 407.667 2134.77 417.667 2126.43 426C2118.1 434.333 2107.93 438.5 2095.93 438.5Z" fill="#1E1E1E"/>
<path d="M1595.39 431V426L1602.39 424C1608.72 422.333 1613.05 419.5 1615.39 415.5C1618.05 411.5 1619.55 406.167 1619.89 399.5V243C1619.89 235.667 1618.72 230.333 1616.39 227C1614.05 223.333 1609.55 220.833 1602.89 219.5L1595.39 217.5V212.5L1680.89 183.5L1685.89 188.5L1689.89 222.5C1700.89 211.5 1713.39 202.167 1727.39 194.5C1741.72 186.833 1756.55 183 1771.89 183C1787.89 183 1800.72 186.333 1810.39 193C1820.05 199.333 1827.39 209.333 1832.39 223C1845.39 210.667 1859.39 201 1874.39 194C1889.72 186.667 1904.55 183 1918.89 183C1942.55 183 1959.89 188.667 1970.89 200C1982.22 211.333 1987.89 229.167 1987.89 253.5V400C1987.89 413 1993.89 421.167 2005.89 424.5L2011.39 426V431H1895.89V426L1900.89 424.5C1907.22 422.5 1911.55 419.5 1913.89 415.5C1916.55 411.5 1917.89 406.167 1917.89 399.5V246.5C1917.89 232.5 1915.39 223 1910.39 218C1905.39 212.667 1897.39 210 1886.39 210C1877.72 210 1869.22 212 1860.89 216C1852.89 219.667 1844.39 225.333 1835.39 233C1837.05 238.333 1838.05 244.167 1838.39 250.5C1839.05 256.833 1839.39 263.5 1839.39 270.5V400C1839.72 413 1845.72 421.167 1857.39 424.5L1861.89 426V431H1745.89V426L1752.89 424C1759.22 422 1763.55 419.167 1765.89 415.5C1768.55 411.5 1769.89 406.167 1769.89 399.5V247C1769.89 233.667 1767.39 224.167 1762.39 218.5C1757.72 212.833 1749.55 210 1737.89 210C1730.22 210 1722.55 212 1714.89 216C1707.22 219.667 1699.22 225.167 1690.89 232.5V400C1690.89 413 1696.72 421.167 1708.39 424.5L1712.89 426V431H1595.39Z" fill="#1E1E1E"/>
<path d="M1410.57 438.5C1391.24 438.5 1374.91 433 1361.57 422C1348.57 411 1342.07 395.167 1342.07 374.5C1342.07 358.833 1350.07 344.5 1366.07 331.5C1382.07 318.167 1407.24 308.167 1441.57 301.5C1446.91 300.5 1452.91 299.5 1459.57 298.5C1466.24 297.167 1473.24 295.833 1480.57 294.5V255C1480.57 232.333 1477.74 216.5 1472.07 207.5C1466.74 198.167 1458.24 193.5 1446.57 193.5C1438.57 193.5 1432.24 196.167 1427.57 201.5C1422.91 206.5 1419.91 215.333 1418.57 228L1417.57 233.5C1416.91 247.833 1413.41 258.333 1407.07 265C1400.74 271.667 1392.91 275 1383.57 275C1374.91 275 1367.74 272.333 1362.07 267C1356.41 261.667 1353.57 254.5 1353.57 245.5C1353.57 231.833 1358.24 220.333 1367.57 211C1377.24 201.667 1389.91 194.667 1405.57 190C1421.24 185.333 1438.24 183 1456.57 183C1486.24 183 1509.07 190.333 1525.07 205C1541.41 219.333 1549.57 242.833 1549.57 275.5V386C1549.57 401 1556.57 408.5 1570.57 408.5H1581.57L1586.07 412.5C1579.74 420.5 1572.74 426.667 1565.07 431C1557.74 435.333 1547.24 437.5 1533.57 437.5C1518.91 437.5 1507.24 434.167 1498.57 427.5C1490.24 420.5 1484.74 411.333 1482.07 400C1472.07 410.667 1461.74 419.833 1451.07 427.5C1440.74 434.833 1427.24 438.5 1410.57 438.5ZM1441.07 408C1447.74 408 1453.91 406.5 1459.57 403.5C1465.57 400.167 1472.57 395.167 1480.57 388.5V304.5C1477.24 305.167 1473.91 305.833 1470.57 306.5C1467.24 307.167 1463.41 307.833 1459.07 308.5C1443.74 312.5 1431.41 319.333 1422.07 329C1413.07 338.333 1408.57 351 1408.57 367C1408.57 380.667 1411.74 391 1418.07 398C1424.41 404.667 1432.07 408 1441.07 408Z" fill="#1E1E1E"/>
<path d="M1211.61 183C1233.28 183 1251.78 187.5 1267.11 196.5C1282.44 205.167 1294.11 217.167 1302.11 232.5C1310.44 247.5 1314.61 264.667 1314.61 284C1314.61 287.667 1314.44 291.5 1314.11 295.5C1313.78 299.167 1313.11 302.5 1312.11 305.5H1163.11C1163.44 341.5 1169.78 367.5 1182.11 383.5C1194.78 399.167 1213.44 407 1238.11 407C1254.78 407 1268.28 404.333 1278.61 399C1288.94 393.667 1298.61 385.833 1307.61 375.5L1312.61 380C1302.28 398.333 1288.44 412.667 1271.11 423C1254.11 433.333 1233.61 438.5 1209.61 438.5C1185.94 438.5 1164.94 433.5 1146.61 423.5C1128.28 413.167 1113.94 398.5 1103.61 379.5C1093.28 360.5 1088.11 337.833 1088.11 311.5C1088.11 284.167 1094.11 261 1106.11 242C1118.11 222.667 1133.44 208 1152.11 198C1171.11 188 1190.94 183 1211.61 183ZM1210.11 193C1200.44 193 1192.11 196 1185.11 202C1178.44 207.667 1173.11 218 1169.11 233C1165.44 247.667 1163.44 268.5 1163.11 295.5H1248.61C1251.94 259.167 1250.61 233 1244.61 217C1238.61 201 1227.11 193 1210.11 193Z" fill="#1E1E1E"/>
<path d="M873.219 431V426L880.719 424C887.385 422 891.885 419 894.219 415C896.885 411 898.219 405.833 898.219 399.5V243C898.219 235.667 896.885 230.333 894.219 227C891.885 223.333 887.385 220.833 880.719 219.5L873.219 217.5V212.5L959.219 183.5L964.219 188.5L968.719 231.5V235.5C973.385 226.167 979.385 217.667 986.719 210C994.385 202 1002.72 195.5 1011.72 190.5C1021.05 185.5 1030.22 183 1039.22 183C1051.89 183 1061.55 186.5 1068.22 193.5C1074.89 200.5 1078.22 209.333 1078.22 220C1078.22 231.333 1074.89 240.167 1068.22 246.5C1061.89 252.5 1054.22 255.5 1045.22 255.5C1031.22 255.5 1018.89 248.5 1008.22 234.5L1007.22 233.5C1003.89 228.833 1000.05 226.333 995.719 226C991.385 225.333 987.385 227.333 983.719 232C980.385 235 977.552 238.667 975.219 243C973.219 247 971.219 251.667 969.219 257V396.5C969.219 409.833 975.052 418.167 986.719 421.5L1002.72 426V431H873.219Z" fill="#1E1E1E"/>
<path d="M550 431V426L560.5 422C571.167 417.667 576.5 409.167 576.5 396.5V135.5C576.5 122.167 571.167 113.667 560.5 110L550 106V101H682C717.333 101 747.667 107.667 773 121C798.667 134 818.333 152.833 832 177.5C846 201.833 853 231.167 853 265.5C853 300.5 845.5 330.333 830.5 355C815.5 379.667 794.5 398.5 767.5 411.5C740.833 424.5 709.333 431 673 431H550ZM651.5 421H673C697 421 716.333 416.333 731 407C745.667 397.333 756.333 381.333 763 359C770 336.333 773.5 305.333 773.5 266C773.5 226.667 770 195.833 763 173.5C756.333 150.833 745.833 134.833 731.5 125.5C717.167 115.833 698.333 111 675 111H651.5V421Z" fill="#1E1E1E"/>
</svg>
