<?xml version="1.0" standalone="no"?>
<!DOCTYPE svg PUBLIC "-//W3C//DTD SVG 20010904//EN"
 "http://www.w3.org/TR/2001/REC-SVG-20010904/DTD/svg10.dtd">
<svg version="1.0" xmlns="http://www.w3.org/2000/svg"
 width="512.000000pt" height="512.000000pt" viewBox="0 0 512.000000 512.000000"
 preserveAspectRatio="xMidYMid meet">
<metadata>
Created by potrace 1.14, written by Peter Selinger 2001-2017
</metadata>
<g transform="translate(0.000000,512.000000) scale(0.100000,-0.100000)"
fill="#000000" stroke="none">
<path d="M0 2560 l0 -2560 2560 0 2560 0 0 2560 0 2560 -2560 0 -2560 0 0
-2560z m2984 2360 c254 -50 493 -157 689 -307 74 -57 90 -89 85 -165 -4 -47
-10 -64 -34 -89 -41 -44 -76 -59 -132 -59 -41 0 -58 6 -98 35 -195 141 -324
206 -498 250 -260 66 -497 55 -751 -35 -180 -64 -342 -167 -480 -305 -147
-146 -243 -300 -304 -488 -52 -160 -56 -191 -56 -382 0 -165 3 -188 28 -279
77 -277 227 -493 440 -630 48 -31 96 -70 106 -87 45 -74 34 -156 -28 -212 -81
-73 -160 -58 -316 60 -149 113 -292 279 -385 448 -129 234 -195 548 -171 815
34 379 171 690 417 949 255 269 594 445 952 496 139 20 396 13 536 -15z
m-1470 -46 c9 -8 16 -22 16 -30 0 -17 -36 -54 -52 -54 -40 1 -64 60 -36 88 17
17 54 15 72 -4z m-269 -78 c68 -29 96 -126 55 -193 -45 -75 -148 -84 -207 -19
-28 30 -33 43 -33 83 0 107 89 169 185 129z m2979 -207 c35 -16 52 -62 37 -96
-21 -45 -71 -103 -96 -109 -27 -7 -80 18 -89 41 -12 31 -6 67 16 98 53 78 78
90 132 66z m-1155 -219 c28 -14 34 -40 15 -61 -20 -22 -45 -24 -62 -7 -18 18
-15 55 6 67 21 13 20 13 41 1z m-371 -42 c20 -17 14 -65 -10 -82 -12 -9 -29
-16 -37 -16 -24 0 -51 32 -51 61 0 49 56 70 98 37z m-1869 -47 c109 -68 128
-126 61 -192 -44 -44 -80 -39 -176 24 -45 30 -85 64 -92 80 -33 69 38 157 113
139 11 -2 53 -25 94 -51z m1525 -36 c37 -38 23 -93 -30 -117 -20 -10 -29 -8
-52 9 -54 40 -33 123 33 123 18 0 40 -7 49 -15z m1692 -23 c24 -16 35 -51 23
-74 -15 -29 -28 -38 -58 -38 -53 0 -80 62 -44 102 16 18 59 24 79 10z m517
-121 c49 -48 36 -135 -25 -167 -47 -24 -86 -18 -124 20 -24 24 -34 43 -34 65
0 104 112 154 183 82z m-1110 -32 c371 -34 694 -186 963 -454 232 -231 361
-473 436 -816 30 -139 33 -463 5 -604 -49 -249 -162 -516 -262 -621 -69 -73
-159 -73 -231 0 -70 70 -71 141 -4 246 134 206 200 428 200 670 0 587 -412
1100 -988 1231 -128 29 -324 35 -442 15 -131 -23 -275 -74 -372 -132 -101 -61
-224 -175 -282 -262 -70 -105 -109 -134 -182 -134 -106 0 -183 105 -154 211
25 95 200 294 350 400 162 114 383 204 575 235 172 27 227 30 388 15z m-1498
-173 c18 -8 38 -23 44 -34 17 -33 13 -87 -9 -115 -53 -68 -169 -27 -170 60 0
37 40 90 73 96 12 2 23 5 25 6 1 0 18 -5 37 -13z m-1165 -75 c0 -28 -28 -47
-48 -34 -23 14 -26 38 -7 57 20 20 55 5 55 -23z m3895 -21 c15 -16 17 -26 9
-48 -17 -50 -94 -39 -94 14 0 49 52 70 85 34z m-3948 -227 c41 -19 79 -73 88
-124 8 -44 -12 -92 -79 -188 -90 -128 -158 -334 -175 -530 -40 -468 172 -910
563 -1173 218 -146 419 -208 674 -208 198 0 338 33 512 120 147 74 297 212
375 346 53 90 91 117 169 122 71 4 113 -17 145 -70 50 -80 36 -133 -70 -281
-203 -284 -525 -483 -889 -548 -123 -22 -383 -17 -518 9 -611 121 -1091 576
-1242 1176 -97 384 -52 780 126 1126 95 184 152 240 242 240 24 0 60 -7 79
-17z m1053 -38 c0 -8 -7 -15 -15 -15 -16 0 -20 12 -8 23 11 12 23 8 23 -8z
m1710 -186 c0 -5 -7 -9 -15 -9 -15 0 -20 12 -9 23 8 8 24 -1 24 -14z m327 -62
c30 -27 38 -69 19 -106 -31 -59 -104 -70 -149 -23 -46 48 -33 122 26 147 38
16 74 10 104 -18z m-417 -307 c91 -55 219 -159 285 -233 123 -136 231 -323
290 -500 190 -573 47 -1172 -385 -1607 -58 -58 -139 -131 -180 -162 -534 -396
-1248 -410 -1827 -36 -74 47 -96 68 -112 102 -65 133 47 274 186 237 23 -6 63
-29 90 -51 62 -52 236 -141 338 -173 149 -46 241 -61 385 -61 196 1 359 37
538 119 279 129 534 409 648 711 162 431 68 919 -234 1218 -67 66 -118 104
-226 168 -25 15 -55 42 -66 60 -24 40 -27 126 -5 168 16 32 68 75 100 83 45
12 110 -4 175 -43z m-2481 -42 c10 -28 4 -46 -20 -59 -29 -15 -59 6 -59 41 0
30 10 38 48 39 15 1 26 -7 31 -21z m3235 -44 c21 -20 20 -73 -1 -96 -20 -22
-70 -23 -95 -1 -22 20 -24 76 -2 97 8 9 31 16 49 16 18 0 41 -7 49 -16z
m-3194 -264 c24 -24 26 -57 3 -82 -33 -37 -103 -11 -103 39 0 28 33 63 60 63
11 0 29 -9 40 -20z m3310 -48 c29 -24 21 -67 -15 -84 -21 -9 -28 -8 -45 7 -25
22 -26 70 -2 84 25 15 37 13 62 -7z m-3194 -256 c27 -27 34 -42 34 -74 0 -77
-74 -127 -144 -98 -73 30 -86 129 -25 180 45 38 92 35 135 -8z m3204 -86 c22
-22 18 -45 -12 -61 -15 -8 -24 -7 -39 7 -23 21 -24 37 -3 58 20 21 30 20 54
-4z m-2837 -338 c52 -54 29 -142 -42 -163 -103 -31 -173 108 -88 173 36 28 98
23 130 -10z m262 -178 c0 -10 -8 -20 -17 -22 -18 -3 -26 27 -11 42 12 11 28 0
28 -20z m1672 -180 c3 -8 -2 -23 -11 -32 -15 -15 -17 -15 -32 0 -21 21 -11 48
16 48 11 0 23 -7 27 -16z m-142 -219 c54 -53 16 -145 -60 -145 -49 0 -85 36
-85 85 0 49 36 85 85 85 25 0 44 -8 60 -25z m-2672 -1 c9 -10 -4 -34 -19 -34
-8 0 -14 9 -14 20 0 19 19 27 33 14z m3853 -38 c57 -48 20 -147 -54 -146 -31
1 -54 16 -70 47 -19 35 -14 63 17 94 36 35 70 37 107 5z m-3672 -150 c70 -29
84 -130 25 -180 -60 -51 -147 -24 -168 51 -16 56 20 123 74 136 33 8 34 8 69
-7z m1954 -209 c14 -14 26 -41 29 -65 5 -37 2 -45 -30 -77 -27 -27 -43 -35
-70 -35 -45 0 -94 40 -102 83 -19 99 102 165 173 94z m-1464 7 c21 -20 20 -63
-1 -86 -21 -24 -68 -23 -93 2 -24 24 -25 48 -4 78 18 26 74 30 98 6z m1020
-65 c54 -42 21 -129 -49 -129 -24 0 -39 7 -54 26 -28 35 -26 69 4 99 30 30 64
32 99 4z m1989 -50 c83 -65 36 -201 -69 -201 -102 0 -148 138 -67 202 35 27
102 27 136 -1z m-3143 -169 c31 -31 26 -81 -13 -132 -53 -70 -121 -77 -152
-17 -20 38 -9 77 36 132 26 31 37 37 70 37 26 0 46 -7 59 -20z m2842 -84 c15
-23 8 -56 -17 -72 -23 -15 -27 -15 -50 0 -30 20 -32 49 -4 77 21 21 56 19 71
-5z"/>
</g>
</svg>
