<?xml version="1.0" standalone="no"?>
<!DOCTYPE svg PUBLIC "-//W3C//DTD SVG 20010904//EN"
 "http://www.w3.org/TR/2001/REC-SVG-20010904/DTD/svg10.dtd">
<svg version="1.0" xmlns="http://www.w3.org/2000/svg"
 width="700.000000pt" height="700.000000pt" viewBox="0 0 700.000000 700.000000"
 preserveAspectRatio="xMidYMid meet">
<metadata>
Created by potrace 1.14, written by Peter Selinger 2001-2017
</metadata>
<g transform="translate(0.000000,700.000000) scale(0.100000,-0.100000)"
fill="#000000" stroke="none">
<path d="M3099 6775 c-2 -1 -38 -6 -80 -9 -97 -7 -273 -31 -309 -41 -8 -2 -28
-6 -44 -9 -30 -5 -116 -23 -151 -31 -99 -23 -153 -38 -330 -97 -217 -71 -633
-277 -741 -367 -5 -4 -21 -14 -35 -21 -25 -13 -249 -182 -302 -229 -146 -126
-343 -327 -464 -476 -78 -96 -183 -237 -183 -246 0 -25 42 -2 100 55 240 234
608 450 945 556 83 26 198 57 239 64 16 3 52 10 80 16 240 48 661 48 912 -1
28 -5 61 -12 75 -14 54 -10 68 -14 170 -44 172 -50 357 -130 506 -218 521
-307 897 -796 1067 -1390 63 -219 81 -360 81 -628 0 -196 -9 -327 -30 -425 -3
-14 -8 -43 -11 -65 -11 -70 -71 -277 -109 -375 -46 -119 -112 -251 -176 -355
-27 -44 -55 -89 -62 -100 -6 -11 -14 -22 -17 -25 -3 -3 -32 -41 -64 -85 -77
-105 -306 -332 -426 -421 -310 -232 -640 -385 -995 -460 -11 -2 -40 -7 -65
-10 -25 -3 -48 -8 -51 -10 -42 -25 -688 -24 -729 1 -3 2 -23 6 -45 9 -249 38
-535 135 -782 266 -250 134 -415 255 -614 452 -67 67 -92 80 -101 56 -5 -12
67 -142 157 -287 39 -63 201 -291 214 -301 3 -3 33 -39 65 -80 77 -97 338
-357 441 -440 44 -35 82 -67 85 -70 16 -18 231 -167 323 -223 365 -223 864
-396 1272 -443 28 -3 61 -7 75 -9 150 -26 583 -26 785 1 623 80 1207 324 1670
698 521 420 891 980 1070 1621 36 129 81 339 90 420 3 28 7 57 10 65 4 15 9
75 21 225 19 240 -2 627 -46 830 -5 22 -11 58 -15 80 -3 22 -12 62 -21 90 -8
27 -14 51 -14 53 3 23 -100 329 -155 457 -52 121 -158 329 -209 410 -261 410
-503 681 -826 924 -52 39 -99 74 -105 79 -16 12 -68 46 -90 58 -11 6 -58 35
-105 64 -184 112 -420 219 -647 294 -226 74 -424 118 -638 142 -33 4 -73 9
-90 11 -36 5 -571 13 -576 8z"/>
<path d="M1170 4690 c0 -77 0 -412 0 -745 0 -333 0 -832 0 -1109 l0 -505 268
4 c260 4 309 7 382 21 19 3 46 8 60 10 29 5 128 32 150 41 8 3 20 7 25 8 47
11 237 115 298 163 157 126 270 261 358 429 41 77 102 250 114 318 3 22 10 62
14 89 5 26 9 105 9 175 1 202 -37 375 -120 546 -49 101 -50 102 -130 211 -183
248 -454 415 -758 467 -59 11 -173 15 -377 16 l-293 2 0 -141z"/>
</g>
</svg>
