<svg width="512" height="512" viewBox="0 0 512 512" fill="none" xmlns="http://www.w3.org/2000/svg">
<path fill-rule="evenodd" clip-rule="evenodd" d="M323.399 28.5961C306.92 23.0368 289.987 19.3378 272.601 17.4991C240.968 14.154 209.762 16.4071 178.983 24.2583C175.508 25.1431 172.012 26.1531 168.494 27.2883C160.47 29.6319 152.285 32.6037 143.937 36.2034C116.991 47.8313 92.9151 63.62 71.7095 83.5695C61.1391 93.5141 51.7104 103.888 43.4232 114.692C38.6495 120.916 35.5008 124.956 33.9772 126.812C33.3816 127.537 33.5046 128.223 34.3462 128.87L34.5275 129.006C34.743 129.174 35.0491 129.221 35.3872 129.139C35.7252 129.056 36.0715 128.85 36.3598 128.56C42.8988 121.964 48.948 116.558 54.5073 112.341C83.7971 90.1215 119.432 76.6549 156.258 74.9587C163.587 74.622 170.855 74.6371 178.063 75.004C212.904 76.86 244.16 88.1512 271.831 108.878C280.312 115.231 287.954 122.202 294.756 129.79C308.033 144.603 318.554 161.27 326.319 179.791C331.554 192.39 335.171 204.749 337.17 216.869C340.64 237.885 340.258 259.278 336.024 281.049C330.637 308.772 318.616 333.763 299.962 356.022C287.768 370.093 273.706 381.98 257.775 391.682C246.393 398.614 234.383 404.269 221.745 408.645C211.624 412.159 201.228 414.636 190.559 416.078C172.081 418.577 153.692 418.29 135.391 415.217C111.993 411.284 89.6822 402.913 68.4594 390.103C53.9785 381.358 40.8767 370.74 29.1538 358.249C28.5754 357.632 27.9388 357.394 27.2439 357.537C27.0182 357.584 26.8062 357.682 26.6227 357.823C26.4392 357.964 26.2886 358.146 26.1814 358.355C26.0742 358.564 26.0129 358.795 26.0018 359.033C25.9908 359.271 26.0302 359.509 26.1174 359.732C26.3332 360.28 26.8187 361.229 27.5741 362.58C32.3694 371.161 37.2165 379.07 42.1154 386.309C56.333 407.307 73.3367 425.871 93.1266 442.001C110.046 455.787 128.04 466.81 147.109 475.072C175.76 487.489 205.959 494.337 237.705 495.615L238.799 495.453L237.705 495.615C259.372 496.456 280.789 494.376 301.956 489.374C326.688 483.715 349.997 474.398 371.885 461.424C391.709 449.623 409.505 434.996 425.272 417.541C441.376 399.715 454.294 380.102 464.027 358.702C472.69 339.646 478.77 319.82 482.266 299.223C484.303 287.215 485.509 275.073 485.885 262.798C486.545 241.062 484.365 219.675 479.346 198.638C478.327 194.373 477.188 190.212 475.927 186.155C465.668 153.175 449.186 123.555 426.483 97.2951C410.617 78.9426 392.292 63.4884 371.509 50.9325C356.364 41.6742 340.327 34.2287 323.399 28.5961ZM191.005 195.135C181.915 182.761 170.859 173.457 157.837 167.224C145.959 161.536 133.136 158.685 119.367 158.672C108.089 158.663 96.8472 158.717 85.6423 158.834C85.5868 158.835 85.5341 158.858 85.4954 158.896C85.4568 158.935 85.4351 158.987 85.4351 159.041V340.827C85.4351 341.189 85.6164 341.371 85.9789 341.371C102.592 341.349 113.512 341.273 118.739 341.144C126.59 340.954 134.154 339.929 141.431 338.069C157.367 333.999 171.06 326.02 182.511 314.133C191.247 305.069 197.909 294.628 202.497 282.81C208.149 268.256 209.664 252.09 207.742 236.713C205.864 221.628 200.285 207.769 191.005 195.135ZM237.784 485.581L237.784 485.581C237.65 484.999 237.519 484.427 237.39 483.865C237.519 484.427 237.65 484.999 237.784 485.581Z" fill="#FC7545"/>
</svg>
