<svg width="2034" height="244" viewBox="0 0 2034 244" fill="none" xmlns="http://www.w3.org/2000/svg">
<path d="M2015.77 146.06C2027.21 152.56 2033.19 163.48 2033.19 177.52C2033.19 183.24 2031.89 189.22 2029.29 194.42C2026.69 199.62 2023.31 204.3 2018.63 208.2C2009.53 215.74 1997.31 219.9 1983.27 219.9C1974.69 219.9 1966.63 218.34 1958.83 215.22C1950.77 212.1 1943.75 207.42 1937.25 201.44L1956.23 181.68C1963.77 188.96 1973.13 192.6 1983.79 192.6C1996.53 192.6 2005.89 186.1 2005.89 177.52C2005.89 170.76 2005.11 168.42 1983.79 165.04C1983.53 165.04 1983.27 164.78 1983.01 164.78C1974.43 163.22 1965.33 161.92 1957.79 157.76C1946.61 151.52 1940.63 141.38 1940.63 128.38C1940.63 117.2 1945.31 107.58 1953.63 101.08C1960.91 95.1 1971.31 91.98 1983.27 91.98C1997.57 91.98 2012.65 96.4 2023.57 103.94L2007.97 126.3C2001.73 122.14 1992.11 119.28 1983.27 119.28C1975.73 119.28 1971.83 121.36 1970.53 122.4C1969.23 123.44 1967.93 124.74 1967.93 128.38C1967.93 132.54 1969.49 132.54 1970.79 133.84C1974.69 135.92 1981.45 136.96 1988.21 138C1997.57 139.56 2007.45 141.12 2015.77 146.06Z" fill="white"/>
<path d="M1896.67 110.7C1908.63 122.66 1915.39 138.78 1915.39 155.94V216H1888.09V197.54C1877.69 211.32 1862.09 219.9 1844.67 219.9C1812.95 219.9 1787.47 191.3 1787.47 155.94C1787.47 138.78 1794.23 122.66 1806.19 110.7C1818.41 98.74 1834.27 91.98 1851.43 91.98C1868.59 91.98 1884.71 98.74 1896.67 110.7ZM1851.43 192.6C1871.71 192.6 1888.09 176.22 1888.09 155.94C1888.09 135.66 1871.71 119.28 1851.43 119.28C1831.15 119.28 1814.77 135.66 1814.77 155.94C1814.77 176.22 1831.15 192.6 1851.43 192.6Z" fill="white"/>
<path d="M1722.31 91.98C1748.05 91.98 1768.85 114.34 1768.85 142.16V216H1741.55V142.16C1741.55 129.42 1731.41 119.28 1718.93 119.28C1706.19 119.28 1696.05 129.42 1696.05 142.16V216H1668.75V142.16C1668.75 129.42 1658.61 119.28 1646.13 119.28C1633.39 119.28 1623.25 129.42 1623.25 142.16V216H1595.95V142.16C1595.95 114.34 1616.75 91.98 1642.75 91.98C1659.39 91.98 1674.21 101.6 1682.53 116.16C1690.59 101.6 1705.41 91.98 1722.31 91.98Z" fill="white"/>
<path d="M1520.23 192.6C1532.97 192.6 1544.93 187.92 1552.99 179.6L1572.49 198.84C1559.23 212.1 1540.25 219.9 1520.23 219.9C1502.03 219.9 1484.61 213.4 1471.35 201.7C1464.85 195.72 1459.65 188.96 1456.01 181.42C1452.11 173.36 1450.29 164.78 1450.29 155.94C1450.29 139.04 1456.53 122.92 1467.97 110.96C1479.41 98.74 1495.01 91.98 1511.39 91.98C1527.77 91.98 1543.37 98.74 1554.81 110.96C1566.25 122.92 1572.49 139.04 1572.49 155.94C1572.49 159.84 1572.23 163.74 1571.45 167.64H1479.93C1485.65 182.2 1501.51 192.6 1520.23 192.6ZM1511.39 119.28C1496.57 119.28 1483.83 129.68 1479.41 144.24H1543.37C1538.95 129.68 1526.21 119.28 1511.39 119.28Z" fill="white"/>
<path d="M1429.97 147.88V216H1402.67V147.88C1402.67 132.02 1389.93 119.28 1374.07 119.28C1358.21 119.28 1345.47 132.02 1345.47 147.88V216H1318.17V18.4H1345.47V109.14C1354.31 98.48 1367.05 91.98 1380.83 91.98C1408.13 91.98 1429.97 116.94 1429.97 147.88Z" fill="white"/>
<path d="M1224.69 181.94C1231.97 189.22 1241.33 192.6 1250.69 192.6C1260.05 192.6 1269.41 189.22 1276.69 181.94L1295.93 201.18C1283.97 213.14 1267.85 219.9 1250.69 219.9C1233.79 219.9 1217.67 213.14 1205.71 201.18C1193.49 188.96 1186.73 173.1 1186.73 155.94C1186.73 138.78 1193.49 122.66 1205.45 110.7C1217.67 98.74 1233.79 91.98 1250.69 91.98C1267.85 91.98 1283.97 98.74 1295.93 110.7L1276.69 129.94C1269.41 122.92 1260.05 119.28 1250.69 119.28C1241.33 119.28 1231.97 122.92 1224.95 129.94C1217.67 137.22 1214.03 146.58 1214.03 155.94C1214.03 165.3 1217.67 174.92 1224.69 181.94Z" fill="white"/>
<path d="M1154.52 146.06C1165.96 152.56 1171.94 163.48 1171.94 177.52C1171.94 183.24 1170.64 189.22 1168.04 194.42C1165.44 199.62 1162.06 204.3 1157.38 208.2C1148.28 215.74 1136.06 219.9 1122.02 219.9C1113.44 219.9 1105.38 218.34 1097.58 215.22C1089.52 212.1 1082.5 207.42 1076 201.44L1094.98 181.68C1102.52 188.96 1111.88 192.6 1122.54 192.6C1135.28 192.6 1144.64 186.1 1144.64 177.52C1144.64 170.76 1143.86 168.42 1122.54 165.04C1122.28 165.04 1122.02 164.78 1121.76 164.78C1113.18 163.22 1104.08 161.92 1096.54 157.76C1085.36 151.52 1079.38 141.38 1079.38 128.38C1079.38 117.2 1084.06 107.58 1092.38 101.08C1099.66 95.1 1110.06 91.98 1122.02 91.98C1136.32 91.98 1151.4 96.4 1162.32 103.94L1146.72 126.3C1140.48 122.14 1130.86 119.28 1122.02 119.28C1114.48 119.28 1110.58 121.36 1109.28 122.4C1107.98 123.44 1106.68 124.74 1106.68 128.38C1106.68 132.54 1108.24 132.54 1109.54 133.84C1113.44 135.92 1120.2 136.96 1126.96 138C1136.32 139.56 1146.2 141.12 1154.52 146.06Z" fill="white"/>
<path d="M1006.54 91.98C1032.28 91.98 1053.08 114.34 1053.08 142.16V216H1025.78V142.16C1025.78 129.42 1015.64 119.28 1003.16 119.28C990.423 119.28 980.283 129.42 980.283 142.16V216H952.983V142.16C952.983 129.42 942.843 119.28 930.363 119.28C917.623 119.28 907.483 129.42 907.483 142.16V216H880.183V142.16C880.183 114.34 900.983 91.98 926.983 91.98C943.623 91.98 958.443 101.6 966.763 116.16C974.823 101.6 989.643 91.98 1006.54 91.98Z" fill="white"/>
<path d="M834.584 110.7C846.544 122.66 853.304 138.78 853.304 155.94V216H826.004V197.54C815.604 211.32 800.004 219.9 782.584 219.9C750.864 219.9 725.384 191.3 725.384 155.94C725.384 138.78 732.144 122.66 744.104 110.7C756.324 98.74 772.184 91.98 789.344 91.98C806.504 91.98 822.624 98.74 834.584 110.7ZM789.344 192.6C809.624 192.6 826.004 176.22 826.004 155.94C826.004 135.66 809.624 119.28 789.344 119.28C769.064 119.28 752.684 135.66 752.684 155.94C752.684 176.22 769.064 192.6 789.344 192.6Z" fill="white"/>
<path d="M654.66 192.6C667.4 192.6 679.36 187.92 687.42 179.6L706.92 198.84C693.66 212.1 674.68 219.9 654.66 219.9C636.46 219.9 619.04 213.4 605.78 201.7C599.28 195.72 594.08 188.96 590.44 181.42C586.54 173.36 584.72 164.78 584.72 155.94C584.72 139.04 590.96 122.92 602.4 110.96C613.84 98.74 629.44 91.98 645.82 91.98C662.2 91.98 677.8 98.74 689.24 110.96C700.68 122.92 706.92 139.04 706.92 155.94C706.92 159.84 706.66 163.74 705.88 167.64H614.36C620.08 182.2 635.94 192.6 654.66 192.6ZM645.82 119.28C631 119.28 618.26 129.68 613.84 144.24H677.8C673.38 129.68 660.64 119.28 645.82 119.28Z" fill="white"/>
<path d="M565.634 91.98C567.974 91.98 570.054 92.24 572.394 92.5V120.06C570.054 119.54 567.974 119.28 565.634 119.28C549.774 119.28 537.034 132.02 537.034 147.88V216H509.734V147.88C509.734 116.94 534.694 91.98 565.634 91.98Z" fill="white"/>
<path d="M459.28 65.72C474.36 82.36 482.68 104.2 482.68 127.6C482.68 151 474.36 172.84 459.28 189.48C452 197.8 443.42 204.3 433.54 208.98C423.4 213.66 412.48 216 401.56 216H328.5V39.2H401.56C412.48 39.2 423.4 41.54 433.54 46.2199C443.42 50.8999 452 57.4 459.28 65.72ZM401.56 186.1C429.64 186.1 452.78 159.84 452.78 127.6C452.78 95.36 429.64 69.1 401.56 69.1H358.4V186.1H401.56Z" fill="white"/>
<path d="M0.0897359 141.353C0.0725044 141.352 0.0556475 141.347 0.0411701 141.338C0.0266927 141.329 0.0152038 141.315 0.00807026 141.3C0.000936689 141.285 -0.00154142 141.268 0.00093038 141.251C0.00340218 141.235 0.0107195 141.219 0.0220131 141.207C6.85632 133.653 12.8526 127.108 18.0108 121.572C19.6248 119.84 21.2332 118.093 22.836 116.329C25.0426 113.899 26.1572 112.669 26.1798 112.641C26.2099 112.602 27.1702 111.573 29.0608 109.555C31.637 106.8 34.2782 103.753 36.5441 101.389C37.669 100.218 38.6999 99.0905 39.6368 98.0073C41.0589 96.3629 42.5601 94.9827 43.7932 93.521C45.317 91.7219 47.3684 89.7261 49.1912 87.7191C54.0522 82.3669 58.5539 77.4627 62.6962 73.0063C63.0151 72.6634 63.2126 72.3092 63.4581 71.9803C63.4809 71.9494 63.5112 71.9247 63.5461 71.9085C63.5811 71.8923 63.6197 71.8852 63.6584 71.8877C63.6971 71.8902 63.7346 71.9023 63.7676 71.9229C63.8007 71.9435 63.8281 71.9719 63.8475 72.0056C65.5029 74.9253 67.2082 78.0005 68.9633 81.2313C80.636 102.711 91.2976 122.471 100.948 140.512C101.061 140.724 101.162 140.961 101.25 141.224C101.256 141.241 101.257 141.259 101.255 141.277C101.252 141.296 101.245 141.313 101.234 141.328C101.223 141.342 101.209 141.354 101.193 141.363C101.176 141.371 101.158 141.375 101.14 141.375H75.8626C75.8501 141.375 75.8379 141.38 75.8281 141.388C75.8183 141.396 75.8115 141.408 75.8089 141.42L66.3673 194.922C66.3634 194.944 66.3648 194.967 66.3715 194.989C66.3782 195.011 66.39 195.03 66.4058 195.046C66.4216 195.062 66.441 195.074 66.4623 195.081C66.4836 195.088 66.5062 195.089 66.5282 195.085C66.7821 195.04 67.5101 195.015 68.7122 195.009C71.2687 194.996 79.8309 195.005 94.3987 195.037C101.111 195.05 106.032 194.897 109.162 194.576C117.716 193.699 126.06 191.571 134.194 188.193C139.102 186.154 143.711 183.717 148.021 180.884C151.659 178.493 155.32 175.674 159.003 172.428C161.896 169.882 164.595 167.135 167.099 164.189C167.909 163.232 169.044 161.813 170.502 159.934C171.828 158.221 172.893 156.752 173.696 155.526C176.461 151.3 178.705 147.302 180.429 143.531C185.421 132.612 188.151 121.184 188.617 109.248C188.723 106.571 188.69 103.239 188.519 99.2526C188.449 97.6203 188.314 96.078 188.112 94.6257C187.839 92.6524 187.669 90.5526 187.283 88.478C185.857 80.8565 183.548 73.7063 180.355 67.0273C169.638 44.604 148.526 28.379 124.476 22.2004C112.301 19.0727 100.001 18.4946 87.5757 20.466C84.7426 20.9158 81.2098 21.7338 79.0088 22.2594C75.0678 23.1983 71.1022 24.4726 67.1123 26.0824C58.8313 29.4275 51.1731 33.8435 44.1375 39.3306C42.7294 40.4269 41.3947 41.8268 39.9274 42.6138C39.851 42.6547 39.7656 42.6761 39.6789 42.6758C39.5922 42.6756 39.5069 42.6539 39.4307 42.6126C39.3545 42.5713 39.2899 42.5118 39.2426 42.4393C39.1953 42.3669 39.1669 42.2839 39.1599 42.1978C39.1006 41.4164 40.7034 39.7298 41.6402 38.6475C41.9581 38.2802 43.4377 36.6854 46.0788 33.8632C48.0447 31.7643 50.8467 29.1923 54.4849 26.147C55.2656 25.493 57.2765 23.9835 60.5178 21.6185C63.7854 19.2329 67.5026 16.9185 71.6694 14.6753C76.79 11.9168 81.9435 9.57808 87.1299 7.6591C88.9471 6.98634 91.7792 6.07932 95.6262 4.93806C98.9577 3.95046 101.835 3.20368 104.258 2.6977C113.769 0.709385 123.492 -0.179827 133.427 0.0300606C135.225 0.0694146 137.035 0.166863 138.856 0.322404C142.6 0.640047 144.561 0.808707 147.834 1.2669C150.727 1.67168 152.248 2.0343 155.642 2.67521C157.057 2.94319 158.468 3.2599 159.875 3.62532C166.389 5.31754 172.147 7.21684 177.147 9.32321C183.022 11.7997 188.773 14.7597 194.289 18.1469C194.522 18.2894 195.903 19.2114 198.431 20.9129C203.253 24.1587 207.474 27.4729 211.096 30.8554C213.351 32.9599 214.588 34.1199 214.806 34.3355C217.822 37.2945 220.857 40.6396 223.912 44.3707C226.728 47.8132 229.355 51.4619 231.793 55.3167C242.789 72.7037 248.793 91.825 249.807 112.681C250.02 117.027 250.057 120.827 249.917 124.082C249.87 125.188 249.753 127.032 249.565 129.614C247.725 154.899 237.933 178.888 221.663 198.281C214.287 207.074 205.788 214.802 196.166 221.466C189.36 226.179 182.234 230.113 174.788 233.267C164.201 237.749 153.343 240.82 142.214 242.478C135.842 243.429 129.01 243.931 121.716 243.985C111.078 244.067 99.255 243.786 89.218 243.797C84.3551 243.801 57.6377 243.799 9.06577 243.791C9.01843 243.791 8.97169 243.781 8.92882 243.761C8.88596 243.74 8.848 243.711 8.81762 243.675C8.78724 243.638 8.76516 243.596 8.75295 243.55C8.74073 243.504 8.73867 243.456 8.74691 243.409L27.0968 141.614C27.1026 141.582 27.1013 141.549 27.0929 141.518C27.0845 141.486 27.0692 141.457 27.0482 141.432C27.0272 141.407 27.001 141.387 26.9714 141.374C26.9417 141.36 26.9094 141.353 26.8767 141.353H0.0897359Z" fill="#3CCE8E"/>
</svg>
