<svg width="512" height="512" viewBox="0 0 512 512" fill="none" xmlns="http://www.w3.org/2000/svg">
<rect width="512" height="512" fill="white"/>
<path d="M26.1387 292.628C26.1076 292.628 26.0773 292.618 26.0512 292.601C26.0251 292.584 26.0044 292.561 25.9916 292.533C25.9787 292.505 25.9743 292.474 25.9787 292.445C25.9832 292.415 25.9964 292.387 26.0167 292.365C38.3269 278.733 49.1275 266.923 58.4186 256.933C61.3258 253.809 64.2229 250.655 67.1099 247.473C71.0845 243.087 73.0922 240.869 73.1328 240.818C73.187 240.747 74.9168 238.891 78.3222 235.249C82.9627 230.278 87.72 224.779 91.8014 220.513C93.8277 218.4 95.6845 216.365 97.372 214.411C99.9336 211.443 102.638 208.953 104.859 206.315C107.603 203.069 111.298 199.467 114.582 195.846C123.337 186.188 131.446 177.338 138.907 169.296C139.482 168.678 139.837 168.038 140.28 167.445C140.321 167.389 140.375 167.345 140.438 167.315C140.501 167.286 140.571 167.273 140.64 167.278C140.71 167.282 140.778 167.304 140.837 167.341C140.897 167.378 140.946 167.43 140.981 167.491C143.963 172.759 147.034 178.308 150.196 184.138C171.221 222.899 190.425 258.557 207.808 291.112C208.011 291.494 208.192 291.922 208.352 292.395C208.362 292.426 208.365 292.46 208.36 292.492C208.355 292.525 208.342 292.556 208.323 292.583C208.303 292.609 208.278 292.631 208.248 292.646C208.219 292.661 208.186 292.669 208.153 292.669H162.623C162.6 292.669 162.579 292.677 162.561 292.691C162.543 292.706 162.531 292.727 162.526 292.75L145.52 389.294C145.513 389.335 145.515 389.376 145.527 389.415C145.539 389.454 145.561 389.49 145.589 389.518C145.618 389.547 145.652 389.569 145.691 389.581C145.729 389.593 145.77 389.596 145.81 389.588C146.267 389.507 147.578 389.462 149.744 389.451C154.348 389.428 169.771 389.445 196.011 389.502C208.101 389.526 216.965 389.249 222.603 388.67C238.01 387.088 253.04 383.248 267.691 377.151C276.532 373.472 284.833 369.075 292.596 363.962C299.15 359.647 305.743 354.561 312.378 348.704C317.589 344.109 322.45 339.153 326.96 333.837C328.421 332.109 330.464 329.549 333.09 326.157C335.479 323.066 337.396 320.415 338.843 318.204C343.824 310.578 347.867 303.363 350.971 296.559C359.963 276.855 364.88 256.233 365.72 234.696C365.91 229.863 365.851 223.851 365.542 216.658C365.417 213.713 365.173 210.929 364.811 208.309C364.318 204.748 364.013 200.959 363.316 197.215C360.748 183.462 356.589 170.559 350.838 158.507C331.534 118.044 293.506 88.766 250.187 77.6167C228.257 71.9727 206.102 70.9295 183.721 74.487C178.618 75.2986 172.255 76.7746 168.29 77.7232C161.191 79.4174 154.049 81.7169 146.862 84.6217C131.946 90.658 118.151 98.6268 105.479 108.528C102.943 110.507 100.538 113.033 97.8955 114.453C97.7579 114.527 97.604 114.565 97.4478 114.565C97.2916 114.564 97.138 114.525 97.0008 114.451C96.8636 114.376 96.7471 114.269 96.662 114.138C96.5768 114.007 96.5256 113.858 96.513 113.702C96.4063 112.292 99.2932 109.249 100.981 107.296C101.553 106.633 104.218 103.755 108.976 98.6623C112.517 94.8749 117.564 90.2336 124.117 84.7384C125.523 83.5582 129.145 80.8343 134.984 76.5667C140.869 72.2618 147.565 68.0855 155.07 64.0377C164.293 59.0599 173.576 54.8396 182.918 51.3768C186.191 50.1628 191.292 48.5261 198.222 46.4667C204.223 44.6845 209.405 43.337 213.77 42.4239C230.902 38.836 248.415 37.2314 266.309 37.6102C269.548 37.6812 272.808 37.857 276.088 38.1377C282.833 38.7109 286.365 39.0152 292.261 39.842C297.471 40.5725 300.21 41.2268 306.325 42.3833C308.873 42.8669 311.414 43.4384 313.949 44.0978C325.683 47.1515 336.053 50.5788 345.059 54.3797C355.641 58.8486 366 64.1899 375.936 70.3022C376.357 70.5592 378.844 72.223 383.398 75.2935C392.082 81.1505 399.686 87.1309 406.209 93.2348C410.271 97.0324 412.499 99.1256 412.892 99.5145C418.324 104.854 423.791 110.89 429.294 117.623C434.367 123.835 439.098 130.419 443.49 137.375C463.295 168.75 474.111 203.255 475.938 240.889C476.32 248.731 476.386 255.589 476.136 261.463C476.051 263.458 475.839 266.786 475.5 271.446C472.187 317.072 454.55 360.361 425.243 395.356C411.957 411.222 396.648 425.168 379.316 437.193C367.057 445.698 354.222 452.796 340.81 458.488C321.74 466.577 302.182 472.117 282.136 475.11C270.66 476.825 258.353 477.731 245.216 477.829C226.054 477.976 204.758 477.469 186.679 477.489C177.92 477.496 129.796 477.493 42.3066 477.479C42.2213 477.479 42.1371 477.46 42.0599 477.424C41.9827 477.387 41.9143 477.335 41.8596 477.269C41.8049 477.203 41.7651 477.126 41.7431 477.043C41.7211 476.96 41.7174 476.874 41.7322 476.789L74.7847 293.1C74.7951 293.042 74.7927 292.983 74.7776 292.926C74.7624 292.869 74.735 292.816 74.6972 292.771C74.6593 292.726 74.612 292.69 74.5587 292.666C74.5053 292.641 74.4471 292.628 74.3882 292.628H26.1387Z" fill="#3CCE8E"/>
</svg>
