<?xml version="1.0" encoding="UTF-8" standalone="no"?>
<!DOCTYPE svg PUBLIC "-//W3C//DTD SVG 1.1//EN" "http://www.w3.org/Graphics/SVG/1.1/DTD/svg11.dtd">
<svg xmlns="http://www.w3.org/2000/svg" version="1.1" viewBox="0.00 0.00 316.00 230.00">
<g stroke-width="2.00" fill="none" stroke-linecap="butt">
<path stroke="#a990e1" vector-effect="non-scaling-stroke" d="
  M 159.92 141.62
  C 168.69 141.62 175.02 136.42 178.31 128.53
  Q 194.19 90.50 213.61 44.21
  A 0.72 0.72 0.0 0 0 212.95 43.21
  L 193.75 43.21
  A 1.36 1.36 0.0 0 0 192.50 44.04
  Q 192.02 45.20 160.18 121.44
  Q 160.10 121.64 159.87 121.64
  Q 159.76 121.64 159.68 121.44
  Q 127.92 45.17 127.44 44.01
  A 1.36 1.36 0.0 0 0 126.19 43.18
  L 106.99 43.16
  A 0.72 0.72 0.0 0 0 106.33 44.16
  Q 125.70 90.47 141.55 128.52
  C 144.83 136.40 151.15 141.61 159.92 141.62"
/>
<path stroke="#a990e1" vector-effect="non-scaling-stroke" d="
  M 130.76 171.01
  C 134.16 162.93 131.82 155.08 125.82 148.99
  Q 96.91 119.59 61.76 83.73
  A 0.72 0.72 0.0 0 0 60.58 83.95
  L 53.14 101.66
  A 1.36 1.36 0.0 0 0 53.42 103.13
  Q 54.30 104.03 112.26 162.95
  Q 112.40 163.10 112.32 163.31
  Q 112.27 163.41 112.06 163.41
  Q 29.42 163.12 28.16 163.11
  A 1.36 1.36 0.0 0 0 26.91 163.94
  L 19.45 181.64
  A 0.72 0.72 0.0 0 0 20.11 182.63
  Q 70.32 182.73 111.55 182.87
  C 120.10 182.90 127.35 179.10 130.76 171.01"
/>
<path stroke="#a990e1" vector-effect="non-scaling-stroke" d="
  M 189.24 171.00
  C 192.64 179.10 199.90 182.91 208.45 182.88
  Q 249.71 182.76 299.95 182.70
  A 0.72 0.72 0.0 0 0 300.62 181.70
  L 293.16 163.99
  A 1.36 1.36 0.0 0 0 291.91 163.16
  Q 290.65 163.16 207.95 163.41
  Q 207.74 163.41 207.65 163.20
  Q 207.61 163.10 207.76 162.95
  Q 265.78 104.02 266.67 103.13
  A 1.36 1.36 0.0 0 0 266.95 101.65
  L 259.51 83.93
  A 0.72 0.72 0.0 0 0 258.33 83.71
  Q 223.14 119.57 194.19 148.97
  C 188.19 155.06 185.84 162.91 189.24 171.00"
/>
</g>
<path fill="#ffffff" d="
  M 316.00 0.00
  L 316.00 230.00
  L 0.00 230.00
  L 0.00 0.00
  L 316.00 0.00
  Z
  M 159.92 141.62
  C 168.69 141.62 175.02 136.42 178.31 128.53
  Q 194.19 90.50 213.61 44.21
  A 0.72 0.72 0.0 0 0 212.95 43.21
  L 193.75 43.21
  A 1.36 1.36 0.0 0 0 192.50 44.04
  Q 192.02 45.20 160.18 121.44
  Q 160.10 121.64 159.87 121.64
  Q 159.76 121.64 159.68 121.44
  Q 127.92 45.17 127.44 44.01
  A 1.36 1.36 0.0 0 0 126.19 43.18
  L 106.99 43.16
  A 0.72 0.72 0.0 0 0 106.33 44.16
  Q 125.70 90.47 141.55 128.52
  C 144.83 136.40 151.15 141.61 159.92 141.62
  Z
  M 130.76 171.01
  C 134.16 162.93 131.82 155.08 125.82 148.99
  Q 96.91 119.59 61.76 83.73
  A 0.72 0.72 0.0 0 0 60.58 83.95
  L 53.14 101.66
  A 1.36 1.36 0.0 0 0 53.42 103.13
  Q 54.30 104.03 112.26 162.95
  Q 112.40 163.10 112.32 163.31
  Q 112.27 163.41 112.06 163.41
  Q 29.42 163.12 28.16 163.11
  A 1.36 1.36 0.0 0 0 26.91 163.94
  L 19.45 181.64
  A 0.72 0.72 0.0 0 0 20.11 182.63
  Q 70.32 182.73 111.55 182.87
  C 120.10 182.90 127.35 179.10 130.76 171.01
  Z
  M 189.24 171.00
  C 192.64 179.10 199.90 182.91 208.45 182.88
  Q 249.71 182.76 299.95 182.70
  A 0.72 0.72 0.0 0 0 300.62 181.70
  L 293.16 163.99
  A 1.36 1.36 0.0 0 0 291.91 163.16
  Q 290.65 163.16 207.95 163.41
  Q 207.74 163.41 207.65 163.20
  Q 207.61 163.10 207.76 162.95
  Q 265.78 104.02 266.67 103.13
  A 1.36 1.36 0.0 0 0 266.95 101.65
  L 259.51 83.93
  A 0.72 0.72 0.0 0 0 258.33 83.71
  Q 223.14 119.57 194.19 148.97
  C 188.19 155.06 185.84 162.91 189.24 171.00
  Z"
/>
<path fill="#5220c2" d="
  M 159.87 121.64
  Q 160.10 121.64 160.18 121.44
  Q 192.02 45.20 192.50 44.04
  A 1.36 1.36 0.0 0 1 193.75 43.21
  L 212.95 43.21
  A 0.72 0.72 0.0 0 1 213.61 44.21
  Q 194.19 90.50 178.31 128.53
  C 175.02 136.42 168.69 141.62 159.92 141.62
  C 151.15 141.61 144.83 136.40 141.55 128.52
  Q 125.70 90.47 106.33 44.16
  A 0.72 0.72 0.0 0 1 106.99 43.16
  L 126.19 43.18
  A 1.36 1.36 0.0 0 1 127.44 44.01
  Q 127.92 45.17 159.68 121.44
  Q 159.76 121.64 159.87 121.64
  Z"
/>
<path fill="#5220c2" d="
  M 130.76 171.01
  C 127.35 179.10 120.10 182.90 111.55 182.87
  Q 70.32 182.73 20.11 182.63
  A 0.72 0.72 0.0 0 1 19.45 181.64
  L 26.91 163.94
  A 1.36 1.36 0.0 0 1 28.16 163.11
  Q 29.42 163.12 112.06 163.41
  Q 112.27 163.41 112.32 163.31
  Q 112.40 163.10 112.26 162.95
  Q 54.30 104.03 53.42 103.13
  A 1.36 1.36 0.0 0 1 53.14 101.66
  L 60.58 83.95
  A 0.72 0.72 0.0 0 1 61.76 83.73
  Q 96.91 119.59 125.82 148.99
  C 131.82 155.08 134.16 162.93 130.76 171.01
  Z"
/>
<path fill="#5220c2" d="
  M 189.24 171.00
  C 185.84 162.91 188.19 155.06 194.19 148.97
  Q 223.14 119.57 258.33 83.71
  A 0.72 0.72 0.0 0 1 259.51 83.93
  L 266.95 101.65
  A 1.36 1.36 0.0 0 1 266.67 103.13
  Q 265.78 104.02 207.76 162.95
  Q 207.61 163.10 207.65 163.20
  Q 207.74 163.41 207.95 163.41
  Q 290.65 163.16 291.91 163.16
  A 1.36 1.36 0.0 0 1 293.16 163.99
  L 300.62 181.70
  A 0.72 0.72 0.0 0 1 299.95 182.70
  Q 249.71 182.76 208.45 182.88
  C 199.90 182.91 192.64 179.10 189.24 171.00
  Z"
/>
</svg>
