<svg width="2690" height="669" viewBox="0 0 2690 669" fill="none" xmlns="http://www.w3.org/2000/svg">
<path d="M788.628 103.899C788.628 103.395 788.828 102.912 789.184 102.556C789.54 102.2 790.023 102 790.526 102L930.989 102.488C961.242 102.593 991.179 108.387 1019.09 119.541C1047 130.694 1072.34 146.989 1093.66 167.493C1114.98 187.998 1131.87 212.311 1143.35 239.044C1154.83 265.778 1160.69 294.408 1160.59 323.3L1160.48 340.01C1160.28 398.355 1135.81 454.224 1092.47 495.328C1049.12 536.433 990.454 559.406 929.361 559.195L788.899 558.706C788.395 558.706 787.912 558.506 787.556 558.15C787.2 557.794 787 557.311 787 556.808L788.628 103.899ZM868.055 181.319V479.171C868.055 479.761 868.289 480.326 868.706 480.744C869.123 481.161 869.689 481.395 870.279 481.395H935.275C972.039 481.395 1007.3 466.631 1033.29 440.35C1059.29 414.069 1073.89 378.425 1073.89 341.258V319.231C1073.89 282.065 1059.29 246.42 1033.29 220.139C1007.3 193.859 972.039 179.094 935.275 179.094H870.279C869.987 179.094 869.698 179.152 869.428 179.264C869.158 179.375 868.913 179.539 868.706 179.746C868.5 179.952 868.336 180.198 868.224 180.467C868.112 180.737 868.055 181.027 868.055 181.319Z" fill="#192331"/>
<path d="M1522.03 427.522C1528.5 451.575 1541.61 470.69 1561.36 484.868C1590.5 505.756 1637.21 503.315 1669.49 492.464C1680.77 488.702 1693.63 483.675 1708.06 477.381C1709.37 476.8 1710.85 476.722 1712.21 477.162C1713.57 477.603 1714.72 478.531 1715.44 479.769L1740.62 523.388C1740.91 523.876 1740.99 524.463 1740.85 525.021C1740.71 525.579 1740.35 526.064 1739.86 526.372C1701.19 549.774 1661.64 562.849 1621.2 565.598C1559.46 569.775 1496.2 541.292 1466.69 485.574C1428.82 414.067 1441.03 324.278 1502.39 271.706C1532.15 246.243 1568.9 234.85 1612.63 237.526C1682.4 241.867 1737.31 287.114 1749.24 356.287C1753.11 378.748 1754.79 400.378 1754.29 421.175C1754.28 421.659 1754.18 422.138 1753.98 422.583C1753.79 423.028 1753.51 423.43 1753.15 423.768C1752.8 424.105 1752.38 424.371 1751.93 424.55C1751.47 424.729 1750.98 424.817 1750.49 424.81C1683 423.291 1616.65 422.567 1551.43 422.64C1541.09 422.64 1532.05 423.11 1524.31 424.05C1522.24 424.339 1521.49 425.497 1522.03 427.522ZM1597.77 359.217C1617.55 359.217 1640.92 359.289 1667.86 359.434C1668.44 359.437 1669.01 359.307 1669.53 359.054C1670.04 358.801 1670.5 358.432 1670.85 357.975C1671.2 357.518 1671.44 356.986 1671.55 356.42C1671.67 355.855 1671.65 355.271 1671.5 354.714C1662.65 322.759 1627.88 301.654 1597.77 301.654C1567.65 301.654 1532.88 322.759 1524.03 354.714C1523.88 355.271 1523.86 355.855 1523.98 356.42C1524.09 356.986 1524.33 357.518 1524.68 357.975C1525.03 358.432 1525.49 358.801 1526.01 359.054C1526.52 359.307 1527.09 359.437 1527.67 359.434C1554.62 359.289 1577.98 359.217 1597.77 359.217Z" fill="#192331"/>
<path d="M1417.86 252.717C1403.97 271.127 1393.19 288.705 1385.53 305.451C1384.99 306.606 1384.11 307.566 1383.01 308.198C1381.92 308.83 1380.65 309.103 1379.39 308.978C1362.3 307.188 1345 305.614 1330.4 310.714C1313.26 316.718 1304.78 331.783 1304.96 355.907C1305.5 431.935 1305.36 498.992 1304.52 557.079C1304.51 557.977 1304.14 558.832 1303.5 559.461C1302.87 560.091 1302 560.443 1301.11 560.443H1231.07C1229.29 560.443 1228.41 559.557 1228.41 557.785C1227.72 479.045 1228.1 409.51 1229.55 349.18C1230.9 293.95 1269.59 252.5 1322.7 241.432C1352.14 235.284 1383.63 238.249 1417.16 250.33C1418.49 250.8 1418.73 251.596 1417.86 252.717Z" fill="#192331"/>
<path d="M1845.38 508.147C1808.11 465.395 1799.37 402.461 1815.76 350.106C1826.75 314.95 1847.17 287.118 1877.01 266.61C1908.08 245.27 1944.92 235.649 1987.52 237.747C2035.48 240.08 2090.71 264.331 2109.92 310.772C2113.61 319.598 2115.36 334.59 2115.18 355.748C2114.53 441.686 2114.15 509.521 2114.04 559.254C2114.04 561.062 2113.14 561.984 2111.33 562.021C2082.72 562.527 2034.94 562.871 1967.99 563.051C1918.33 563.196 1877.46 544.895 1845.38 508.147ZM2035.32 496.319C2035.65 496.32 2035.98 496.253 2036.29 496.124C2036.59 495.996 2036.87 495.807 2037.1 495.569C2037.34 495.332 2037.52 495.05 2037.64 494.741C2037.76 494.432 2037.82 494.102 2037.82 493.77C2037.16 460.675 2037.2 415.03 2037.92 356.834C2038.21 334.698 2027.87 319.652 2006.89 311.695C1961.05 294.279 1901.59 309.362 1887.21 360.74C1872.6 413.185 1885.49 454.074 1925.89 483.407C1937.56 491.925 1951.61 494.529 1966.47 495.126C1988.03 496.03 2010.98 496.428 2035.32 496.319Z" fill="#192331"/>
<path d="M2443.36 289.012C2444.12 288.397 2449.2 283.768 2458.61 275.123C2519.64 218.916 2626.41 226.132 2673.45 296.445C2684.77 313.336 2690.29 334.983 2690 361.386C2689.24 435.388 2689.2 500.728 2689.89 557.404C2689.93 559.466 2688.89 560.497 2686.8 560.497H2618.38C2616.61 560.497 2615.72 559.611 2615.72 557.838C2615.25 460.905 2615.45 397.23 2616.32 366.812C2616.65 355.201 2615.49 346.033 2612.85 339.305C2603.25 315.108 2576.5 306.048 2551.16 306.048C2507.22 306.048 2472.22 339.468 2472.39 383.033C2472.6 462.678 2472.69 520.639 2472.66 556.916C2472.66 559.484 2471.37 560.768 2468.81 560.768H2402.18C2399.61 560.768 2398.33 559.484 2398.33 556.916C2398.26 483.168 2398.42 435.262 2398.82 413.198C2399.36 382.129 2396.79 360.699 2391.12 348.908C2376.14 317.803 2349.23 304.131 2310.39 307.892C2285.32 310.279 2269.08 322.342 2261.67 344.079C2259.93 349.179 2259.22 367.101 2259.55 397.845C2259.98 437.486 2259.71 490.618 2258.74 557.242C2258.72 558.139 2258.35 558.995 2257.7 559.624C2257.05 560.253 2256.18 560.606 2255.26 560.605H2190.43C2188.48 560.605 2187.5 559.647 2187.5 557.73C2187.14 484.813 2186.89 432.386 2186.74 400.449C2186.56 361.893 2189.09 335.146 2194.34 320.208C2214.74 262.048 2279.9 233.239 2339.57 239.262C2366.88 242.01 2389.38 250.004 2407.07 263.242C2414.59 268.884 2425.28 277.583 2439.13 289.338C2440.4 290.423 2441.81 290.314 2443.36 289.012Z" fill="#192331"/>
<path fill-rule="evenodd" clip-rule="evenodd" d="M273.594 669C461.923 669 614.594 519.239 614.594 334.5C614.594 149.761 461.923 0 273.594 0C190.354 0 114.081 29.2564 54.8769 77.8583C100.498 50.0529 154.305 34 211.926 34C376.783 34 510.426 165.404 510.426 327.5C510.426 489.596 376.783 621 211.926 621C129.062 621 54.084 587.801 0 534.192C62.1635 616.012 161.57 669 273.594 669Z" fill="url(#paint0_linear_173_132)"/>
<path fill-rule="evenodd" clip-rule="evenodd" d="M213.928 622C379.889 622 514.428 490.148 514.428 327.5C514.428 164.852 379.889 33 213.928 33C160.416 33 110.171 46.7078 66.65 70.7358C95.2331 58.6415 126.36 52 158.926 52C298.378 52 411.426 173.779 411.426 324C411.426 474.221 298.378 596 158.926 596C102.735 596 50.8298 576.227 8.88086 542.788C62.5746 591.927 134.668 622 213.928 622Z" fill="url(#paint1_linear_173_132)"/>
<path fill-rule="evenodd" clip-rule="evenodd" d="M111.594 453.59C119.37 455.172 127.392 456 135.594 456C206.838 456 264.594 393.544 264.594 316.5C264.594 239.456 206.838 177 135.594 177C127.392 177 119.37 177.828 111.594 179.41V453.59Z" fill="url(#paint2_linear_173_132)"/>
<path fill-rule="evenodd" clip-rule="evenodd" d="M133.594 442C204.838 442 262.594 382.678 262.594 309.5C262.594 236.669 205.385 177.563 134.607 177.004C134.935 177.001 135.264 177 135.594 177C206.838 177 264.594 239.456 264.594 316.5C264.594 393.544 206.838 456 135.594 456C127.392 456 119.37 455.172 111.594 453.59V440.081C118.743 441.343 126.094 442 133.594 442Z" fill="#D1F3FF"/>
<defs>
<linearGradient id="paint0_linear_173_132" x1="302.305" y1="0" x2="302.305" y2="669" gradientUnits="userSpaceOnUse">
<stop stop-color="#2B59B1"/>
<stop offset="1" stop-color="#74D2F1"/>
</linearGradient>
<linearGradient id="paint1_linear_173_132" x1="249.01" y1="33" x2="249.01" y2="622" gradientUnits="userSpaceOnUse">
<stop stop-color="#3B84FD"/>
<stop offset="1" stop-color="#33A7F5"/>
</linearGradient>
<linearGradient id="paint2_linear_173_132" x1="188.094" y1="177" x2="188.094" y2="456" gradientUnits="userSpaceOnUse">
<stop stop-color="#4285F1"/>
<stop offset="1" stop-color="#66C8F3"/>
</linearGradient>
</defs>
</svg>
