<svg width="512" height="512" viewBox="0 0 512 512" fill="none" xmlns="http://www.w3.org/2000/svg">
<rect width="512" height="512" fill="black"/>
<path d="M256.228 48C141.798 48 48 139.802 48 258.643C48 373.544 138.107 465 255.009 465C368.911 465 465 370.923 465 257.654C465 144.534 373.723 48 256.228 48ZM255.157 445.281C152.378 445.281 67.1815 365.301 67.1815 257.374C67.1815 249.641 67.8407 241.975 68.7635 235.594C84.6822 310.793 145.654 376.034 241.76 376.034C325.094 376.034 378.37 309.458 378.37 255C378.37 192.661 325.473 137.906 257.596 137.906H221.087C205.569 137.906 189.151 149.863 189.151 172.543V295.028C189.151 308.68 198.947 309.769 218.64 310.956V187.286C218.64 172.694 230.34 162.884 244.841 162.884H254.053C308.648 162.884 350.422 210.648 350.422 258.099C350.422 309.458 309.175 353.034 240.128 353.034C159.052 353.034 91.9521 288.469 91.9521 202.504C91.9521 177.097 95.9071 163.544 103.833 152.332C140.68 100.562 192.998 67.4552 255.701 67.4552C359.798 67.4552 444.731 154.888 444.731 257.885C444.731 359.101 362.237 445.281 255.157 445.281Z" fill="#14EC77" stroke="#14EC77" stroke-width="8"/>
</svg>
