<svg width="1209" height="145" viewBox="0 0 1209 145" fill="none" xmlns="http://www.w3.org/2000/svg">
<path d="M1116.03 142.4V2.40039H1207.63V26.0004H1141.63V118.8H1208.43V142.4H1116.03ZM1128.03 82.4004V59.2004H1197.43V82.4004H1128.03Z" fill="white"/>
<path d="M1037.04 144.4C1028.91 144.4 1021.44 143.4 1014.64 141.4C1007.84 139.267 1001.71 136.133 996.241 132C990.774 127.867 985.907 122.867 981.641 117L998.641 97.8C1005.17 106.867 1011.57 113.133 1017.84 116.6C1024.11 120.067 1031.17 121.8 1039.04 121.8C1043.57 121.8 1047.71 121.133 1051.44 119.8C1055.17 118.333 1058.11 116.4 1060.24 114C1062.37 111.467 1063.44 108.6 1063.44 105.4C1063.44 103.133 1062.97 101.067 1062.04 99.2C1061.24 97.2 1059.97 95.4667 1058.24 94C1056.51 92.4 1054.37 90.9333 1051.84 89.6C1049.31 88.2667 1046.44 87.1333 1043.24 86.2C1040.04 85.2667 1036.51 84.4 1032.64 83.6C1025.31 82.1333 1018.91 80.2 1013.44 77.8C1007.97 75.2667 1003.37 72.2 999.641 68.6C995.907 64.8667 993.174 60.7333 991.441 56.2C989.707 51.5333 988.841 46.2667 988.841 40.4C988.841 34.5333 990.107 29.1333 992.641 24.2C995.307 19.2667 998.907 15 1003.44 11.4C1007.97 7.79999 1013.24 4.99999 1019.24 3C1025.24 0.999998 1031.71 0 1038.64 0C1046.51 0 1053.51 0.933333 1059.64 2.8C1065.91 4.66667 1071.37 7.46666 1076.04 11.2C1080.84 14.8 1084.77 19.2 1087.84 24.4L1070.64 41.4C1067.97 37.2667 1064.97 33.8667 1061.64 31.2C1058.31 28.4 1054.71 26.3333 1050.84 25C1046.97 23.5333 1042.91 22.8 1038.64 22.8C1033.84 22.8 1029.64 23.4667 1026.04 24.8C1022.57 26.1333 1019.84 28.0667 1017.84 30.6C1015.84 33 1014.84 35.9333 1014.84 39.4C1014.84 42.0667 1015.44 44.4667 1016.64 46.6C1017.84 48.6 1019.51 50.4 1021.64 52C1023.91 53.6 1026.77 55 1030.24 56.2C1033.71 57.4 1037.64 58.4667 1042.04 59.4C1049.37 60.8667 1055.97 62.8667 1061.84 65.4C1067.71 67.8 1072.71 70.7333 1076.84 74.2C1080.97 77.5333 1084.11 81.4 1086.24 85.8C1088.37 90.0667 1089.44 94.8667 1089.44 100.2C1089.44 109.4 1087.24 117.333 1082.84 124C1078.57 130.533 1072.51 135.6 1064.64 139.2C1056.77 142.667 1047.57 144.4 1037.04 144.4Z" fill="white"/>
<path d="M839.393 142.4L893.993 2.40039H918.393L972.593 142.4H945.593L915.593 62.8004C914.926 61.2004 913.993 58.6671 912.793 55.2004C911.726 51.7337 910.526 48.0004 909.193 44.0004C907.859 39.8671 906.659 36.0671 905.593 32.6004C904.526 29.0004 903.726 26.4004 903.193 24.8004L908.193 24.6004C907.393 27.2671 906.459 30.2671 905.393 33.6004C904.326 36.9337 903.193 40.4004 901.993 44.0004C900.793 47.6004 899.593 51.0671 898.393 54.4004C897.326 57.7337 896.326 60.7337 895.393 63.4004L865.393 142.4H839.393ZM864.193 110.4L873.193 87.8004H936.993L946.593 110.4H864.193Z" fill="white"/>
<path d="M719.297 142.4V2.40039H778.897C788.097 2.40039 795.83 3.73373 802.097 6.4004C808.497 9.06706 813.297 13.0671 816.497 18.4004C819.83 23.6004 821.497 29.9337 821.497 37.4004C821.497 45.1337 819.43 51.6671 815.297 57.0004C811.164 62.3337 805.364 66.0004 797.897 68.0004L797.697 64.0004C803.964 65.3337 809.43 67.7337 814.097 71.2004C818.764 74.5337 822.364 78.7337 824.897 83.8004C827.564 88.7337 828.897 94.4004 828.897 100.8C828.897 107.6 827.764 113.6 825.497 118.8C823.364 124 820.164 128.334 815.897 131.8C811.63 135.267 806.564 137.934 800.697 139.8C794.83 141.534 788.23 142.4 780.897 142.4H719.297ZM744.697 119H779.697C784.63 119 788.764 118.267 792.097 116.8C795.564 115.334 798.164 113.2 799.897 110.4C801.764 107.467 802.697 104 802.697 100C802.697 96.2671 801.697 93.0671 799.697 90.4004C797.83 87.7337 795.097 85.7337 791.497 84.4004C787.897 82.9337 783.63 82.2004 778.697 82.2004H744.697V119ZM744.697 59.8004H776.497C780.364 59.8004 783.697 59.0671 786.497 57.6004C789.43 56.1337 791.697 54.1337 793.297 51.6004C794.897 49.0671 795.697 46.1337 795.697 42.8004C795.697 37.4671 793.897 33.3337 790.297 30.4004C786.697 27.3337 781.43 25.8004 774.497 25.8004H744.697V59.8004Z" fill="white"/>
<path d="M547.469 142.4V2.40039H572.069L623.069 85.4004L608.669 85.2004L660.269 2.40039H683.669V142.4H657.869V89.8004C657.869 77.8004 658.135 67.0004 658.669 57.4004C659.335 47.8004 660.402 38.2671 661.869 28.8004L665.069 37.4004L621.669 104.4H608.469L566.469 38.0004L569.269 28.8004C570.735 37.7337 571.735 46.9337 572.269 56.4004C572.935 65.7337 573.269 76.8671 573.269 89.8004V142.4H547.469Z" fill="white"/>
<path d="M394.221 142.4L448.821 2.40039H473.221L527.421 142.4H500.421L470.421 62.8004C469.754 61.2004 468.821 58.6671 467.621 55.2004C466.554 51.7337 465.354 48.0004 464.021 44.0004C462.687 39.8671 461.487 36.0671 460.421 32.6004C459.354 29.0004 458.554 26.4004 458.021 24.8004L463.021 24.6004C462.221 27.2671 461.287 30.2671 460.221 33.6004C459.154 36.9337 458.021 40.4004 456.821 44.0004C455.621 47.6004 454.421 51.0671 453.221 54.4004C452.154 57.7337 451.154 60.7337 450.221 63.4004L420.221 142.4H394.221ZM419.021 110.4L428.021 87.8004H491.821L501.421 110.4H419.021Z" fill="white"/>
<path d="M286.82 142.4V2.40039H378.42V26.0004H312.42V118.8H379.22V142.4H286.82ZM298.82 82.4004V59.2004H368.22V82.4004H298.82Z" fill="white"/>
<path d="M149.367 142.4V2.40039H210.167C218.567 2.40039 226.234 4.40039 233.167 8.4004C240.101 12.2671 245.567 17.6004 249.567 24.4004C253.701 31.0671 255.767 38.6004 255.767 47.0004C255.767 55.0004 253.701 62.4004 249.567 69.2004C245.567 75.8671 240.101 81.2004 233.167 85.2004C226.367 89.0671 218.701 91.0004 210.167 91.0004H174.767V142.4H149.367ZM230.567 142.4L194.967 79.2004L221.767 74.2004L261.367 142.6L230.567 142.4ZM174.767 68.4004H210.367C214.234 68.4004 217.567 67.5337 220.367 65.8004C223.301 63.9337 225.567 61.4004 227.167 58.2004C228.767 55.0004 229.567 51.4671 229.567 47.6004C229.567 43.2004 228.567 39.4004 226.567 36.2004C224.567 33.0004 221.767 30.4671 218.167 28.6004C214.567 26.7337 210.434 25.8004 205.767 25.8004H174.767V68.4004Z" fill="white"/>
<path d="M0 142.4V2.40039H56.2C66.3333 2.40039 75.4667 4.06706 83.6 7.4004C91.8667 10.7337 98.9333 15.5337 104.8 21.8004C110.8 28.0671 115.333 35.4671 118.4 44.0004C121.6 52.5337 123.2 62.0004 123.2 72.4004C123.2 82.8004 121.6 92.3337 118.4 101C115.333 109.534 110.867 116.934 105 123.2C99.1333 129.334 92.0667 134.067 83.8 137.4C75.5333 140.734 66.3333 142.4 56.2 142.4H0ZM26 122.2L24 118.4H55.2C61.7333 118.4 67.5333 117.334 72.6 115.2C77.8 113.067 82.2 110 85.8 106C89.4 102 92.1333 97.2004 94 91.6004C95.8667 85.8671 96.8 79.4671 96.8 72.4004C96.8 65.3337 95.8667 59.0004 94 53.4004C92.1333 47.6671 89.3333 42.8004 85.6 38.8004C82 34.8004 77.6667 31.7337 72.6 29.6004C67.5333 27.4671 61.7333 26.4004 55.2 26.4004H23.4L26 23.0004V122.2Z" fill="white"/>
</svg>
