<svg id="Layer_1" version="1.1" viewBox="0 0 65 65" xml:space="preserve" xmlns="http://www.w3.org/2000/svg" enable-background="new 0 0 65 65"><circle cx="32.5" cy="32.5" r="32" fill="#691eeb" class="fill-bee920"></circle><path d="M23.7 50.6h-6.2v3H47.6v-3h-6.2v-3.9h13.2V13.4h-44v33.3h13.2v3.9zm14.6 0H26.7v-3.9h11.7v3.9zM13.5 16.4h38v20.8h-38V16.4zm0 27.3v-3.5h38v3.5h-38z" fill="#ffffff" class="fill-ffffff"></path><path d="m25.9 22.5-2.6 8.7h2l.6-2.2h2.5l.7 2.2h2.1l-2.7-8.7h-2.6zm.3 5 .5-1.8c.1-.5.3-1.2.4-1.7.1.5.3 1.2.4 1.7l.5 1.8h-1.8zM35 22.4c-1.2 0-2 .1-2.6.2v8.5h1.9V28h.7c1.2 0 2.1-.3 2.8-.9.5-.5.8-1.2.8-2.1 0-.8-.4-1.6-.9-2-.7-.3-1.5-.6-2.7-.6zm-.1 4.2c-.3 0-.5 0-.7-.1V24c.1 0 .4-.1.8-.1 1 0 1.5.5 1.5 1.3.1.9-.5 1.4-1.6 1.4zM39.8 22.5h2v8.7h-2z" fill="#ffffff" class="fill-ffffff"></path></svg>