<?xml version="1.0" ?><svg id="Layer_1" style="enable-background:new 0 0 65 65;" version="1.1" viewBox="0 0 65 65" xml:space="preserve" xmlns="http://www.w3.org/2000/svg" xmlns:xlink="http://www.w3.org/1999/xlink"><style type="text/css">
	.st0{fill:#FF9F0D;}
	.st1{fill:#FFFFFF;}
	.st2{fill:#56E0C5;}
	.st3{fill:#76D6ED;}
	.st4{fill:#DE72F5;}
	.st5{fill:#FBD51A;}
	.st6{fill:#7EAEF4;}
	.st7{fill:#C6DEAC;}
	.st8{fill:#BEE920;}
	.st9{fill:#FF4055;}
	.st10{fill:#DEBB7E;}
</style><g><circle class="st4" cx="32.5" cy="32.5" r="32"/><path class="st1" d="M52.5,11h-40c-0.8,0-1.5,0.7-1.5,1.5v40c0,0.8,0.7,1.5,1.5,1.5h40c0.8,0,1.5-0.7,1.5-1.5v-40   C54,11.7,53.3,11,52.5,11z M51,14v7.8H14V14H51z M14,51V24.7h37V51H14z"/><rect class="st1" height="3" width="2.7" x="16.6" y="16.4"/><rect class="st1" height="3" width="2.7" x="22" y="16.4"/><rect class="st1" height="3" width="15.8" x="32.6" y="16.4"/><path class="st1" d="M25.1,30.9l-7.6,5.9c-0.4,0.3-0.6,0.7-0.6,1.2s0.2,0.9,0.6,1.2l7.6,5.9l1.8-2.4L20.8,38l6.1-4.7L25.1,30.9z"/><path class="st1" d="M47.5,36.8l-7.6-5.9l-1.8,2.4l6.1,4.7l-6.1,4.7l1.8,2.4l7.6-5.9c0.4-0.3,0.6-0.7,0.6-1.2S47.9,37.1,47.5,36.8z   "/><rect class="st1" height="3" transform="matrix(0.3796 -0.9252 0.9252 0.3796 -14.9952 53.6461)" width="19.2" x="22.9" y="36.5"/></g></svg>