<svg id="Layer_1" version="1.1" viewBox="0 0 65 65" xml:space="preserve" xmlns="http://www.w3.org/2000/svg" enable-background="new 0 0 65 65"><circle cx="32.5" cy="32.5" r="32" fill="#eb1eda" class="fill-bee920"></circle><path d="M53.9 25.9c0-.1.1-.1.1-.2.1-.2.1-.4.2-.6 0-.1 0-.2.1-.2.1-.3.1-.6.1-.9 0-2.1-1.2-3.9-3.1-4.6v-.3c0-3.6-2.8-6.6-6.3-6.6-1.2-1.8-3.1-3-5.3-3-3.5 0-6.3 3-6.3 6.6v34.3c0 2.8 2.2 5.1 4.9 5.1 1.9 0 3.5-1.1 4.4-2.8.1 0 .2.1.2.1.1 0 .2.1.3.1.1 0 .2.1.3.1.1 0 .2.1.3.1.1 0 .3 0 .4.1h.8c3.5 0 6.3-3 6.3-6.6 0-.7-.1-1.3-.3-2 2.4-.9 4.1-3.4 4.1-6.2 0-1.1-.3-2.2-.8-3.2v-.1c.2-.3.3-.5.5-.8 0 0 0-.1.1-.1.1-.3.2-.5.3-.8v-.1c.1-.3.2-.6.2-.9v-.2c0-.3.1-.6.1-.9 0-1.8-.7-3.5-1.9-4.7.1-.2.2-.5.3-.7zm-.5 6.3c0 .1-.1.3-.1.4 0 .2-.1.3-.1.5-.1.2-.1.3-.2.5-.1.1-.1.2-.2.3-.1.2-.2.3-.4.5l-.2.2c-.8.8-1.8 1.3-3 1.3s-2.4-.6-3.2-1.5l-1.5 1.3c1.2 1.4 2.9 2.2 4.7 2.2 1.3 0 2.5-.4 3.5-1.1.2.5.3 1.1.3 1.7 0 2.2-1.5 4.1-3.6 4.5l-1.3.2.6 1.2c.3.7.5 1.4.5 2.2 0 2.5-1.9 4.6-4.3 4.6-.3 0-.5 0-.8-.1-.1 0-.1 0-.2-.1-.2 0-.4-.1-.5-.2-.1 0-.1 0-.2-.1-1.5-.7-2.6-2.3-2.6-4.2h-2c0 2 .9 3.8 2.2 5-.4 1.1-1.5 1.9-2.7 1.9-1.6 0-2.9-1.4-2.9-3.1V39.8h6.9c1.2 0 2.2 1.1 2.2 2.4 0 1.3-1 2.4-2.2 2.4v2c2.3 0 4.2-2 4.2-4.4 0-2.4-1.9-4.4-4.2-4.4h-6.9v-4.3h5v-2h-5V22h4.6c2 0 3.7-1.7 3.7-3.8h-2c0 1-.8 1.8-1.7 1.8h-4.6v-4c0-2.5 1.9-4.6 4.3-4.6 1.6 0 3 .9 3.8 2.4l.3.6.7-.1h.5c2.4 0 4.3 2.1 4.3 4.6 0 .3 0 .6-.1.9v.1c-.4 2.1-2.1 3.6-4.2 3.6-2 0-3.7 1.7-3.7 3.8 0 2.1 1.7 3.8 3.7 3.8v-2c-.9 0-1.7-.8-1.7-1.8s.8-1.8 1.7-1.8c2.7 0 5-1.8 5.9-4.3.9.5 1.5 1.5 1.5 2.6 0 .2 0 .4-.1.6v.1c0 .2-.1.3-.1.5-.1.4-.4.7-.6.9-.5.5-1.1.8-1.8.8v2c.9 0 1.8-.3 2.5-.8.8.9 1.3 2 1.3 3.3.1.4.1.7 0 1zM20 53.2h.8c.1 0 .3 0 .4-.1.1 0 .2 0 .3-.1.1 0 .2-.1.3-.1.1 0 .2-.1.3-.1.1 0 .2-.1.2-.1.8 1.7 2.5 2.8 4.4 2.8 2.7 0 4.9-2.3 4.9-5.1V16.1c0-3.6-2.8-6.6-6.3-6.6-2.1 0-4.1 1.1-5.3 3-3.5 0-6.3 3-6.3 6.6v.3c-1.8.7-3.1 2.5-3.1 4.6 0 .3 0 .6.1.9 0 .1 0 .2.1.2 0 .2.1.4.2.6 0 .1 0 .1.1.2.1.2.2.5.4.7-1.2 1.2-1.9 2.9-1.9 4.7 0 .3 0 .6.1.9v.2c.1.3.1.6.2.9v.1c.1.3.2.5.3.8v.1c.1.3.3.5.5.8v.1c-.5 1-.8 2.1-.8 3.2 0 2.8 1.7 5.2 4.1 6.2-.2.6-.3 1.3-.3 2 0 3.6 2.8 6.6 6.3 6.6zm-8.1-14.7c0-.6.1-1.2.3-1.7 1 .7 2.2 1.1 3.5 1.1 1.8 0 3.5-.8 4.7-2.2L19 34.4c-.8 1-2 1.5-3.2 1.5-1.2 0-2.2-.5-3-1.3-.1-.1-.1-.2-.2-.3-.1-.1-.2-.3-.3-.5-.1-.1-.1-.2-.2-.3-.1-.1-.2-.3-.2-.4-.1-.2-.1-.3-.1-.5 0-.1-.1-.2-.1-.4-.1-.3-.1-.6-.1-.9 0-1.3.5-2.5 1.3-3.3.7.5 1.6.8 2.5.8v-2c-.7 0-1.4-.3-1.8-.8-.3-.3-.5-.6-.6-.9-.1-.2-.1-.3-.2-.5v-.1c0-.2-.1-.4-.1-.6 0-1.1.6-2.1 1.5-2.6.9 2.5 3.2 4.3 5.9 4.3.9 0 1.7.8 1.7 1.8s-.8 1.8-1.7 1.8v2c2 0 3.7-1.7 3.7-3.8 0-2.1-1.7-3.8-3.7-3.8-2.1 0-3.8-1.6-4.2-3.6v-.1c-.1-.3-.1-.6-.1-.9 0-2.5 1.9-4.6 4.3-4.6h.5l.7.1.3-.6c.7-1.5 2.2-2.4 3.8-2.4 2.4 0 4.3 2.1 4.3 4.6v4h-4.6c-.9 0-1.7-.8-1.7-1.8h-2c0 2.1 1.7 3.8 3.7 3.8h4.6v9.5h-5v2h5v4.3h-6.9c-2.3 0-4.2 2-4.2 4.4 0 2.4 1.9 4.4 4.2 4.4v-2c-1.2 0-2.2-1.1-2.2-2.4 0-1.3 1-2.4 2.2-2.4h6.9v10.6c0 1.7-1.3 3.1-2.9 3.1-1.2 0-2.2-.8-2.7-1.9 1.4-1.2 2.2-3 2.2-5h-2c0 1.6-.8 3-1.9 3.8-.2.2-.4.3-.7.4-.1 0-.1.1-.2.1-.1-.1-.3 0-.5 0-.1 0-.1 0-.2.1-.3 0-.5.1-.8.1-2.4 0-4.3-2.1-4.3-4.6 0-.8.2-1.5.5-2.2l.6-1.2-1.3-.2c-2.1-.4-3.6-2.3-3.6-4.5z" fill="#ffffff" class="fill-ffffff"></path></svg>