<?xml version="1.0" ?><svg id="Layer_1" style="enable-background:new 0 0 65 65;" version="1.1" viewBox="0 0 65 65" xml:space="preserve" xmlns="http://www.w3.org/2000/svg" xmlns:xlink="http://www.w3.org/1999/xlink"><style type="text/css">
	.st0{fill:#56E0C5;}
	.st1{fill:#FBD51A;}
	.st2{fill:#DE72F5;}
	.st3{fill:#C6DEAC;}
	.st4{fill:#76D6ED;}
	.st5{fill:#7EAEF4;}
	.st6{fill:#BEE920;}
	.st7{fill:#FF9F0D;}
	.st8{fill:#DEBB7E;}
	.st9{fill:#FF4055;}
	.st10{fill:#FFFFFF;}
</style><circle class="st5" cx="32.5" cy="32.5" r="32"/><g><path class="st10" d="M50.6,40.2c0,0,0-0.1,0.1-0.1c0.1-0.2,0.1-0.3,0.2-0.5c0,0,0,0,0,0c0-0.1,0-0.3,0-0.4V10.5c0-1.1-0.9-2-2-2   H16.1c-1.1,0-2,0.9-2,2v44c0,1.1,0.9,2,2,2h17.5c0,0,0,0,0,0c0.1,0,0.2,0,0.4,0c0,0,0.1,0,0.1,0c0.1,0,0.2,0,0.2-0.1   c0,0,0.1-0.1,0.1-0.1c0.1,0,0.1-0.1,0.2-0.1c0.1-0.1,0.2-0.2,0.3-0.3l15.3-15.3C50.4,40.5,50.5,40.4,50.6,40.2z M18.1,12.5h28.7   v24.7H33.6c-1.1,0-2,0.9-2,2v13.3H18.1V12.5z M35.6,49.7v-8.4H44L35.6,49.7z"/><path class="st10" d="M23.5,21.3h10.2c1.1,0,2-0.9,2-2s-0.9-2-2-2H23.5c-1.1,0-2,0.9-2,2S22.3,21.3,23.5,21.3z"/><path class="st10" d="M40.5,21.3h1c1.1,0,2-0.9,2-2s-0.9-2-2-2h-1c-1.1,0-2,0.9-2,2S39.4,21.3,40.5,21.3z"/><path class="st10" d="M23.5,30.1h10.2c1.1,0,2-0.9,2-2s-0.9-2-2-2H23.5c-1.1,0-2,0.9-2,2S22.3,30.1,23.5,30.1z"/><path class="st10" d="M40.5,30.1h1c1.1,0,2-0.9,2-2s-0.9-2-2-2h-1c-1.1,0-2,0.9-2,2S39.4,30.1,40.5,30.1z"/><path class="st10" d="M23.5,38.9h3.2c1.1,0,2-0.9,2-2s-0.9-2-2-2h-3.2c-1.1,0-2,0.9-2,2S22.3,38.9,23.5,38.9z"/><path class="st10" d="M26.6,43.7h-3.2c-1.1,0-2,0.9-2,2s0.9,2,2,2h3.2c1.1,0,2-0.9,2-2S27.8,43.7,26.6,43.7z"/></g></svg>