<?xml version="1.0" ?><svg id="Layer_1" style="enable-background:new 0 0 65 65;" version="1.1" viewBox="0 0 65 65" xml:space="preserve" xmlns="http://www.w3.org/2000/svg" xmlns:xlink="http://www.w3.org/1999/xlink"><style type="text/css">
	.st0{fill:#76D6ED;}
	.st1{fill:#FFFFFF;}
	.st2{fill:#C6DEAC;}
	.st3{fill:#DEBB7E;}
	.st4{fill:#7EAEF4;}
	.st5{fill:#FF9F0D;}
	.st6{fill:#56E0C5;}
	.st7{fill:#FF4055;}
	.st8{fill:#DE72F5;}
	.st9{fill:#FBD51A;}
	.st10{fill:#BEE920;}
</style><g><circle class="st6" cx="32.5" cy="32.5" r="32"/><path class="st1" d="M51.5,28c-2,0-3.6,1.3-4.3,3h-5.1c-0.2-1.6-0.9-3-1.8-4.2l3.6-3.6c0.6,0.3,1.3,0.5,1.9,0.5   c1.2,0,2.3-0.4,3.2-1.3c0.9-0.9,1.3-2,1.3-3.2s-0.5-2.3-1.3-3.2c-1.8-1.8-4.6-1.8-6.4,0c-1.4,1.4-1.7,3.5-0.9,5.2l-3.6,3.6   c-1.2-0.9-2.7-1.5-4.2-1.8v-5.1c1.8-0.6,3-2.3,3-4.3C37,11,35,9,32.5,9C30,9,28,11,28,13.5c0,2,1.3,3.6,3,4.3v5.1   c-1.6,0.2-3,0.9-4.2,1.8L23.2,21c0.3-0.6,0.5-1.3,0.5-1.9c0-1.2-0.5-2.3-1.3-3.2c-1.8-1.8-4.6-1.8-6.4,0c-0.9,0.9-1.3,2-1.3,3.2   s0.5,2.3,1.3,3.2c0.9,0.9,2,1.3,3.2,1.3c0.7,0,1.3-0.2,1.9-0.5l3.6,3.6c-0.9,1.2-1.5,2.7-1.8,4.2h-5.1c-0.6-1.8-2.3-3-4.3-3   C11,28,9,30,9,32.5s2,4.5,4.5,4.5c2,0,3.6-1.3,4.3-3h5.1c0.2,1.6,0.9,3,1.8,4.2L21,41.8c-1.7-0.8-3.8-0.5-5.1,0.9   c-0.9,0.9-1.3,2-1.3,3.2s0.5,2.3,1.3,3.2c0.9,0.9,2,1.3,3.2,1.3s2.3-0.4,3.2-1.3h0c0.9-0.9,1.3-2,1.3-3.2c0-0.7-0.2-1.3-0.5-1.9   l3.6-3.6c1.2,0.9,2.7,1.5,4.2,1.8v5.1c-1.8,0.6-3,2.3-3,4.3c0,2.5,2,4.5,4.5,4.5c2.5,0,4.5-2,4.5-4.5c0-2-1.3-3.6-3-4.3v-5.1   c1.6-0.2,3-0.9,4.2-1.8l3.6,3.6c-0.8,1.7-0.5,3.8,0.9,5.2h0c0.9,0.9,2,1.3,3.2,1.3s2.3-0.4,3.2-1.3c0.9-0.9,1.3-2,1.3-3.2   s-0.5-2.3-1.3-3.2c-1.4-1.4-3.5-1.7-5.2-0.9l-3.6-3.6c0.9-1.2,1.5-2.7,1.8-4.2h5.1c0.6,1.8,2.3,3,4.3,3c2.5,0,4.5-2,4.5-4.5   S54,28,51.5,28z M39.2,32.5c0,3.7-3,6.7-6.7,6.7c-3.7,0-6.7-3-6.7-6.7s3-6.7,6.7-6.7C36.2,25.8,39.2,28.8,39.2,32.5z M44.8,18   c0.3-0.3,0.7-0.4,1.1-0.4s0.8,0.1,1.1,0.4c0.3,0.3,0.4,0.7,0.4,1.1c0,0.4-0.2,0.8-0.4,1.1c-0.6,0.6-1.6,0.6-2.2,0   C44.2,19.6,44.2,18.6,44.8,18z M32.5,12c0.8,0,1.5,0.7,1.5,1.5s-0.7,1.5-1.5,1.5c-0.8,0-1.5-0.7-1.5-1.5S31.7,12,32.5,12z M18,20.2   c-0.3-0.3-0.4-0.7-0.4-1.1c0-0.4,0.2-0.8,0.4-1.1c0.3-0.3,0.7-0.4,1.1-0.4s0.8,0.1,1.1,0.4c0.3,0.3,0.4,0.7,0.4,1.1   c0,0.4-0.2,0.8-0.4,1.1C19.6,20.8,18.6,20.8,18,20.2z M13.5,34c-0.8,0-1.5-0.7-1.5-1.5c0-0.8,0.7-1.5,1.5-1.5s1.5,0.7,1.5,1.5   C15.1,33.3,14.4,34,13.5,34z M20.2,47c-0.6,0.6-1.6,0.6-2.2,0c-0.3-0.3-0.4-0.7-0.4-1.1c0-0.4,0.2-0.8,0.4-1.1   c0.3-0.3,0.7-0.4,1.1-0.4s0.8,0.1,1.1,0.4c0.3,0.3,0.4,0.7,0.4,1.1S20.5,46.7,20.2,47z M32.5,53c-0.8,0-1.5-0.7-1.5-1.5   s0.7-1.5,1.5-1.5c0.8,0,1.5,0.7,1.5,1.5S33.3,53,32.5,53z M47,44.8c0.3,0.3,0.4,0.7,0.4,1.1c0,0.4-0.2,0.8-0.4,1.1   c-0.6,0.6-1.6,0.6-2.2,0c-0.6-0.6-0.6-1.6,0-2.2C45.4,44.2,46.4,44.2,47,44.8z M51.5,34c-0.8,0-1.5-0.7-1.5-1.5   c0-0.8,0.7-1.5,1.5-1.5c0.8,0,1.5,0.7,1.5,1.5C53,33.3,52.3,34,51.5,34z"/></g></svg>