<?xml version="1.0" ?><svg id="Layer_1" style="enable-background:new 0 0 65 65;" version="1.1" viewBox="0 0 65 65" xml:space="preserve" xmlns="http://www.w3.org/2000/svg" xmlns:xlink="http://www.w3.org/1999/xlink"><style type="text/css">
	.st0{fill:#56E0C5;}
	.st1{fill:#FFFFFF;}
	.st2{fill:#FF4055;}
	.st3{fill:#FBD51A;}
	.st4{fill:#BEE920;}
	.st5{fill:#7EAEF4;}
	.st6{fill:#76D6ED;}
	.st7{fill:#FF9F0D;}
	.st8{fill:#DE72F5;}
	.st9{fill:#DEBB7E;}
	.st10{fill:#C6DEAC;}
</style><g><circle class="st2" cx="32.5" cy="32.5" r="32"/><path class="st1" d="M36.7,38.9c-0.4,0.8-0.7,1.6-0.7,2.6c0,1.4,0.6,2.8,1.6,3.8l6.7,6.7c1,1,2.4,1.6,3.8,1.6s2.7-0.5,3.8-1.6   c2.1-2.1,2.1-5.5,0-7.6l-6.7-6.7c-1.7-1.7-4.3-2-6.3-0.9l-1.4-1.4c5.1-6.2,4.8-15.4-1-21.2C30.3,8,20.3,8,14.1,14.1   C8,20.3,8,30.3,14.1,36.5c3.1,3.1,7.1,4.6,11.2,4.6c3.6,0,7.1-1.2,10.1-3.6L36.7,38.9z M39.8,39.8c0.5-0.5,1.1-0.7,1.7-0.7   c0.6,0,1.2,0.2,1.7,0.7l6.7,6.7c0.9,0.9,0.9,2.4,0,3.3c-0.9,0.9-2.4,0.9-3.3,0l-6.7-6.7c-0.4-0.4-0.7-1-0.7-1.7   S39.3,40.2,39.8,39.8z M16.2,34.3c-5-5-5-13.1,0-18.1c2.5-2.5,5.8-3.7,9-3.7c3.3,0,6.6,1.2,9,3.7c5,5,5,13.1,0,18.1   C29.3,39.3,21.2,39.3,16.2,34.3z"/><polygon class="st1" points="30.6,19.2 28.5,21.3 32.4,25.3 28.5,29.2 30.6,31.4 36.7,25.3  "/><polygon class="st1" points="20,19.2 13.9,25.3 20,31.4 22.1,29.2 18.2,25.3 22.1,21.3  "/><rect class="st1" height="3" transform="matrix(0.235 -0.972 0.972 0.235 -5.2347 43.9266)" width="14.3" x="18.1" y="23.8"/></g></svg>