<?xml version="1.0" ?><svg id="Layer_1" style="enable-background:new 0 0 65 65;" version="1.1" viewBox="0 0 65 65" xml:space="preserve" xmlns="http://www.w3.org/2000/svg" xmlns:xlink="http://www.w3.org/1999/xlink"><style type="text/css">
	.st0{fill:#7EAEF4;}
	.st1{fill:#FFFFFF;}
	.st2{fill:#BEE920;}
	.st3{fill:#C6DEAC;}
	.st4{fill:#FF9F0D;}
	.st5{fill:#DEBB7E;}
	.st6{fill:#76D6ED;}
	.st7{fill:#FBD51A;}
	.st8{fill:#56E0C5;}
	.st9{fill:#FF4055;}
	.st10{fill:#DE72F5;}
</style><g><circle class="st8" cx="32.5" cy="32.5" r="32"/><path class="st1" d="M15.5,54.2h27.1c2.2,0,4-1.5,4.5-3.6l1.3,0.8c0.5,0.4,1.2,0.5,1.8,0.5c0.2,0,0.4,0,0.7-0.1   c0.9-0.2,1.6-0.7,2.1-1.4l1.3-2l0,0c1-1.5,0.6-3.6-1-4.5l-6-4V14.9c0-2.6-2.1-4.7-4.7-4.7H23.4L23,10.6c0,0,0,0,0,0L11.2,22.4   c0,0,0,0,0,0l-0.4,0.4v26.7C10.8,52.1,12.9,54.2,15.5,54.2z M51.7,46.4c0.1,0.1,0.2,0.3,0.1,0.4l-1.3,2c0,0.1-0.1,0.1-0.2,0.1   c0,0-0.1,0-0.2,0L44.1,45l1.6-2.5l1.5,1v0L51.7,46.4z M44.3,14.9v24.5l-1,1.6l-1-0.7c2.4-5.1,0.8-11.3-4-14.4h0   c-2.5-1.7-5.6-2.2-8.5-1.6c-3,0.6-5.5,2.4-7.2,4.9c-1.7,2.5-2.2,5.6-1.6,8.5s2.4,5.5,4.9,7.2c1.9,1.2,4,1.9,6.2,1.9   c0.8,0,1.6-0.1,2.3-0.2c2.5-0.5,4.6-1.8,6.3-3.7l1,0.7l-1.6,2.5l4.3,2.8v0.8c0,0.9-0.7,1.7-1.7,1.7H15.5c-0.9,0-1.7-0.7-1.7-1.7   V24.9h7.1c2.6,0,4.7-2.1,4.7-4.7v-7.1h17.1C43.5,13.2,44.3,13.9,44.3,14.9z M39,39.9c-1.2,1.9-3.1,3.1-5.3,3.6   c-2.2,0.5-4.4,0-6.3-1.2c-1.9-1.2-3.1-3.1-3.6-5.3s0-4.4,1.2-6.3c1.2-1.9,3.1-3.1,5.3-3.6C30.8,27,31.4,27,32,27   c1.6,0,3.2,0.5,4.6,1.4C40.4,30.9,41.5,36,39,39.9z M22.5,15.3v4.9c0,0.9-0.7,1.7-1.7,1.7h-4.9L22.5,15.3z"/></g></svg>