<?xml version="1.0" ?><svg id="Layer_1" style="enable-background:new 0 0 65 65;" version="1.1" viewBox="0 0 65 65" xml:space="preserve" xmlns="http://www.w3.org/2000/svg" xmlns:xlink="http://www.w3.org/1999/xlink"><style type="text/css">
	.st0{fill:#FF4055;}
	.st1{fill:#FFFFFF;}
	.st2{fill:#FBD51A;}
	.st3{fill:#56E0C5;}
	.st4{fill:#DE72F5;}
	.st5{fill:#FF9F0D;}
	.st6{fill:#7EAEF4;}
	.st7{fill:#BEE920;}
	.st8{fill:#C6DEAC;}
	.st9{fill:#DEBB7E;}
	.st10{fill:#76D6ED;}
</style><g><circle class="st4" cx="32.5" cy="32.5" r="32"/><path class="st1" d="M13.8,11.7h-3v41c0,0.8,0.7,1.5,1.5,1.5h41v-3H13.8V11.7z"/><path class="st1" d="M47.8,10.5c-2.7,1-4.2,4-3.2,6.7c0.5,1.3,1.4,2.4,2.6,3l-2.3,9.9c-0.8-0.1-1.5,0-2.3,0.3   c-0.9,0.3-1.6,0.8-2.1,1.5L34.8,29c0.1-0.8,0.1-1.7-0.2-2.5c0,0,0,0,0,0c-0.5-1.3-1.4-2.4-2.7-3c-1.3-0.6-2.7-0.7-4-0.2   c-2.7,1-4.2,4-3.2,6.7c0.4,1.1,1.1,2,2,2.6l-3.5,6.6c-1.1-0.4-2.3-0.4-3.5,0c-2.7,1-4.2,4-3.2,6.7c0.8,2.2,2.8,3.5,5,3.5   c0.6,0,1.2-0.1,1.8-0.3c1.3-0.5,2.4-1.4,3-2.7c0.6-1.3,0.7-2.7,0.2-4c0,0,0,0,0,0c-0.2-0.5-0.5-1-0.8-1.4l3.9-7.4c0,0,0,0,0,0   c0.6,0,1.2-0.1,1.8-0.3c0.9-0.3,1.6-0.9,2.2-1.5l5.6,2.8c-0.1,0.8-0.1,1.7,0.2,2.5c0.8,2.2,2.8,3.5,5,3.5c0.6,0,1.2-0.1,1.8-0.3   c2.7-1,4.2-4,3.2-6.7c0,0,0,0,0,0c-0.3-0.9-0.9-1.7-1.6-2.3l2.5-10.6c0.4,0,0.8-0.1,1.1-0.2c1.3-0.5,2.4-1.4,3-2.7   c0.6-1.3,0.7-2.7,0.2-4C53.5,11,50.5,9.5,47.8,10.5z M22.2,46.3c-1.2,0.4-2.5-0.2-2.9-1.4c-0.4-1.2,0.2-2.5,1.4-2.9   c0.2-0.1,0.5-0.1,0.8-0.1c0.9,0,1.8,0.6,2.1,1.5c0,0,0,0,0,0C24,44.5,23.4,45.8,22.2,46.3z M30.3,30.4c-1.2,0.4-2.5-0.2-2.9-1.4   c-0.4-1.2,0.2-2.5,1.4-2.9c0.2-0.1,0.5-0.1,0.8-0.1c0.9,0,1.8,0.6,2.1,1.5C32.1,28.7,31.5,30,30.3,30.4z M45.1,37.4   c-1.2,0.4-2.5-0.2-2.9-1.4c-0.4-1.2,0.2-2.5,1.4-2.9c0.2-0.1,0.5-0.1,0.8-0.1c0.9,0,1.8,0.6,2.1,1.5C46.9,35.7,46.3,37,45.1,37.4z    M50.3,17.6c-1.2,0.4-2.5-0.2-2.9-1.4c-0.4-1.2,0.2-2.5,1.4-2.9c0.2-0.1,0.5-0.1,0.8-0.1c0.9,0,1.8,0.6,2.1,1.5   C52.1,15.9,51.5,17.2,50.3,17.6z"/></g></svg>